<svg width="293" height="57" viewBox="0 0 293 57" fill="none" xmlns="http://www.w3.org/2000/svg">
<mask id="mask0_6_22" style="mask-type:luminance" maskUnits="userSpaceOnUse" x="0" y="0" width="293" height="57">
<path d="M292.333 0.869919H0.486206V56.1067H292.333V0.869919Z" fill="white"/>
</mask>
<g mask="url(#mask0_6_22)">
<mask id="mask1_6_22" style="mask-type:luminance" maskUnits="userSpaceOnUse" x="0" y="0" width="293" height="57">
<path d="M292.333 0.869919H0.486206V56.1067H292.333V0.869919Z" fill="white"/>
</mask>
<g mask="url(#mask1_6_22)">
<path d="M212.28 23.0442C212.28 18.3612 208.665 15.083 203.323 15.083H192.244V41.4253H196.256V31.1225H202.227L209.225 41.355H213.89L206.402 30.5137C208.074 30.1097 209.562 29.1539 210.628 27.7994C211.694 26.4449 212.276 24.7703 212.28 23.0442ZM196.256 27.5868V18.8061H203.253C203.861 18.7617 204.471 18.8436 205.045 19.0465C205.62 19.2494 206.147 19.569 206.593 19.9854C207.039 20.4017 207.394 20.9059 207.638 21.4665C207.881 22.027 208.006 22.6318 208.006 23.2433C208.006 23.8547 207.881 24.4595 207.638 25.0201C207.394 25.5806 207.039 26.0848 206.593 26.5012C206.147 26.9175 205.62 27.2371 205.045 27.44C204.471 27.6429 203.861 27.7248 203.253 27.6805L196.256 27.5868ZM243.209 35.829C242.418 35.829 241.658 36.1448 241.098 36.7068C240.538 37.2689 240.224 38.0313 240.224 38.8262C240.224 39.6211 240.538 40.3834 241.098 40.9455C241.658 41.5076 242.418 41.8233 243.209 41.8233C244.001 41.8233 244.761 41.5076 245.321 40.9455C245.881 40.3834 246.195 39.6211 246.195 38.8262C246.195 38.0313 245.881 37.2689 245.321 36.7068C244.761 36.1448 244.001 35.829 243.209 35.829ZM258.278 26.1819C254.802 24.7067 253.239 23.8404 253.239 21.7564C253.239 19.6724 255.059 18.3612 257.904 18.3612C260.123 18.4187 262.277 19.1179 264.109 20.3749L264.342 20.5388V16.4645C262.367 15.3624 260.141 14.7898 257.881 14.802C252.68 14.802 249.181 17.7524 249.181 22.1545C249.181 26.5565 252.26 28.0083 255.992 29.5771C259.724 31.1459 261.59 32.1294 261.59 34.2602C261.59 36.391 259.491 38.1705 256.482 38.1705C253.758 38.0883 251.153 37.0339 249.134 35.1968L248.878 34.986V39.5286C251.125 40.977 253.741 41.7414 256.412 41.7297C261.893 41.7297 265.602 38.592 265.602 33.9324C265.602 29.2727 261.823 27.6571 258.138 26.0882M160.894 26.0882C157.419 24.6131 155.856 23.7467 155.856 21.6627C155.856 19.5788 157.676 18.2675 160.521 18.2675C162.741 18.3183 164.897 19.0182 166.726 20.2812L166.959 20.4451V16.4645C164.983 15.3624 162.758 14.7898 160.498 14.802C155.273 14.802 151.774 17.7524 151.774 22.1545C151.774 26.5565 154.877 28.0083 158.609 29.5771C162.341 31.1459 164.207 32.1294 164.207 34.2602C164.207 36.391 162.107 38.1705 159.098 38.1705C156.444 38.0276 153.917 36.9784 151.938 35.1968L151.704 34.986V39.5286C153.942 40.9776 156.552 41.7423 159.215 41.7297C164.72 41.7297 168.405 38.592 168.405 33.9324C168.405 29.2727 164.626 27.6571 160.964 26.0882M169.828 18.8061H177.595V41.5423H181.561V18.8061H189.258V15.083H169.828V18.8061ZM143.797 41.4253H147.739V15.083H143.797V41.4253ZM128.939 30.5137H135.936V36.8359C134.096 37.4295 132.178 37.7452 130.245 37.7725C128.978 37.8772 127.704 37.7094 126.507 37.2803C125.31 36.8512 124.218 36.1707 123.304 35.2842C122.39 34.3976 121.675 33.3256 121.207 32.1395C120.738 30.9535 120.528 29.6807 120.588 28.4063C120.557 27.0917 120.79 25.7842 121.276 24.5626C121.761 23.3411 122.487 22.2309 123.411 21.2988C124.335 20.3667 125.438 19.6322 126.653 19.1394C127.867 18.6466 129.168 18.4057 130.478 18.4314C133.405 18.3996 136.279 19.2124 138.759 20.7729L138.992 20.9134V16.605C136.429 15.1912 133.542 14.473 130.618 14.5211C128.803 14.4417 126.99 14.7336 125.29 15.379C123.59 16.0244 122.039 17.0099 120.73 18.2757C119.421 19.5414 118.382 21.0609 117.676 22.742C116.97 24.4232 116.612 26.2308 116.623 28.0551C116.536 29.8473 116.818 31.6382 117.451 33.3163C118.083 34.9944 119.054 36.5237 120.301 37.8088C121.548 39.094 123.046 40.1074 124.701 40.786C126.355 41.4646 128.131 41.7938 129.918 41.7531C133.369 41.8116 136.771 40.9296 139.762 39.2008V27.0951H128.939V30.5137ZM102.488 14.5211C100.74 14.5278 99.0124 14.8916 97.4094 15.5903C95.8064 16.289 94.3619 17.308 93.1639 18.5852C91.9658 19.8623 91.0393 21.371 90.4407 23.0192C89.8421 24.6674 89.5841 26.4206 89.6822 28.1722C89.5836 29.9617 89.8581 31.7522 90.4882 33.4291C91.1183 35.1061 92.0902 36.6325 93.3416 37.9108C94.593 39.1891 96.0965 40.1911 97.7557 40.8527C99.415 41.5143 101.194 41.821 102.978 41.7531C106.285 41.8851 109.55 40.9675 112.308 39.1306L112.471 39.0135V34.3304L111.841 34.8924C109.422 36.7996 106.427 37.8236 103.351 37.7959C102.17 37.8556 100.99 37.6783 99.8782 37.2743C98.7667 36.8703 97.7467 36.2478 96.8778 35.4432C96.009 34.6386 95.3088 33.6681 94.8182 32.5884C94.3276 31.5088 94.0565 30.3417 94.0207 29.1556H113.871V28.8512C114.012 28.0788 114.082 27.295 114.081 26.5097C114.154 24.9384 113.906 23.3686 113.35 21.8978C112.794 20.4271 111.942 19.0868 110.849 17.9603C109.755 16.8337 108.442 15.945 106.992 15.3494C105.541 14.7537 103.985 14.4638 102.418 14.4976M94.1607 25.5965C94.4019 23.5811 95.3754 21.7259 96.8948 20.3864C98.4142 19.047 100.373 18.3175 102.395 18.3377C103.366 18.3129 104.334 18.4812 105.24 18.8332C106.147 19.1851 106.976 19.7136 107.678 20.3883C108.38 21.063 108.943 21.8705 109.333 22.7644C109.724 23.6582 109.934 24.6207 109.952 25.5965H94.1607ZM227.418 14.5211C225.671 14.5278 223.943 14.8916 222.34 15.5903C220.737 16.289 219.292 17.308 218.094 18.5852C216.896 19.8623 215.97 21.371 215.371 23.0192C214.773 24.6674 214.514 26.4206 214.613 28.1722C214.514 29.9617 214.788 31.7522 215.419 33.4291C216.049 35.1061 217.021 36.6325 218.272 37.9108C219.523 39.1891 221.027 40.1911 222.686 40.8527C224.345 41.5143 226.124 41.821 227.908 41.7531C231.215 41.8851 234.48 40.9675 237.238 39.1306L237.401 39.0135V34.3304L236.772 34.8924C234.352 36.7996 231.358 37.8236 228.281 37.7959C227.101 37.8556 225.92 37.6783 224.809 37.2743C223.697 36.8703 222.677 36.2478 221.808 35.4432C220.939 34.6386 220.239 33.6681 219.749 32.5884C219.258 31.5088 218.987 30.3417 218.951 29.1556H238.801V28.8512C238.942 28.0788 239.012 27.295 239.011 26.5097C239.085 24.9384 238.836 23.3686 238.28 21.8978C237.724 20.4271 236.873 19.0868 235.779 17.9603C234.685 16.8337 233.373 15.945 231.922 15.3494C230.472 14.7537 228.915 14.4638 227.348 14.4976M219.021 25.5731C219.262 23.5577 220.236 21.7025 221.755 20.363C223.275 19.0236 225.233 18.2941 227.255 18.3143C228.231 18.2832 229.203 18.4469 230.115 18.7959C231.027 19.145 231.861 19.6725 232.569 20.3479C233.276 21.0232 233.843 21.8328 234.236 22.7298C234.629 23.6268 234.841 24.5933 234.859 25.5731H219.021ZM87.3497 23.0442C87.3497 18.3612 83.7343 15.083 78.3928 15.083H67.3133V41.4253H71.2319V31.1225H77.2965L84.2941 41.355H88.9592L81.4717 30.5137C83.1435 30.1097 84.6316 29.1539 85.6975 27.7994C86.7633 26.4449 87.3452 24.7703 87.3497 23.0442ZM71.2319 27.5868V18.8061H78.3928C79.0003 18.7617 79.6103 18.8436 80.1848 19.0465C80.7594 19.2494 81.2861 19.569 81.7321 19.9854C82.1781 20.4017 82.5339 20.9059 82.7771 21.4665C83.0204 22.027 83.1459 22.6318 83.1459 23.2433C83.1459 23.8547 83.0204 24.4595 82.7771 25.0201C82.5339 25.5806 82.1781 26.0848 81.7321 26.5012C81.2861 26.9175 80.7594 27.2371 80.1848 27.44C79.6103 27.6429 79.0003 27.7248 78.3928 27.6805L71.2319 27.5868ZM280.693 14.5211C278.946 14.5278 277.218 14.8916 275.615 15.5903C274.012 16.289 272.567 17.308 271.369 18.5852C270.171 19.8623 269.245 21.371 268.646 23.0192C268.048 24.6674 267.79 26.4206 267.888 28.1722C267.789 29.9617 268.064 31.7522 268.694 33.4291C269.324 35.1061 270.296 36.6325 271.547 37.9108C272.798 39.1891 274.302 40.1911 275.961 40.8527C277.62 41.5143 279.399 41.821 281.183 41.7531C284.49 41.8851 287.755 40.9675 290.513 39.1306L290.677 39.0135V34.3304L290.047 34.8924C287.627 36.7996 284.633 37.8236 281.556 37.7959C280.376 37.8556 279.195 37.6783 278.084 37.2743C276.972 36.8703 275.952 36.2478 275.083 35.4432C274.214 34.6386 273.514 33.6681 273.024 32.5884C272.533 31.5088 272.262 30.3417 272.226 29.1556H292.076V28.8512C292.217 28.0788 292.287 27.295 292.286 26.5097C292.36 24.9384 292.111 23.3686 291.555 21.8978C290.999 20.4271 290.148 19.0868 289.054 17.9603C287.96 16.8337 286.648 15.945 285.197 15.3494C283.747 14.7537 282.19 14.4638 280.623 14.4976M272.296 25.5731C272.537 23.5577 273.511 21.7025 275.03 20.363C276.55 19.0236 278.508 18.2941 280.53 18.3143C281.506 18.2832 282.478 18.4469 283.39 18.7959C284.302 19.145 285.136 19.6725 285.844 20.3479C286.551 21.0232 287.118 21.8328 287.511 22.7298C287.904 23.6268 288.116 24.5933 288.134 25.5731H272.296Z" fill="#48B063"/>
<path d="M28.0101 0.869913C22.5654 0.865282 17.2417 2.48182 12.7123 5.51504C8.18296 8.54825 4.65153 12.8619 2.56473 17.9102C0.477939 22.9585 -0.0704533 28.5147 0.988926 33.876C2.04831 39.2373 4.66786 44.1626 8.51621 48.0291C12.3646 51.8956 17.2688 54.5294 22.6086 55.5975C27.9483 56.6655 33.4836 56.1197 38.5143 54.0291C43.545 51.9385 47.845 48.3971 50.8704 43.8529C53.8958 39.3086 55.5107 33.9657 55.5107 28.5C55.5045 21.178 52.6059 14.1573 47.4505 8.97769C42.2952 3.79806 35.304 0.882311 28.0101 0.869913ZM28.0101 51.447C23.4891 51.447 19.0695 50.1012 15.3104 47.5798C11.5513 45.0583 8.62145 41.4745 6.89132 37.2814C5.16119 33.0884 4.70851 28.4745 5.59052 24.0233C6.47253 19.572 8.64962 15.4832 11.8465 12.274C15.0433 9.06481 19.1164 6.87932 23.5506 5.9939C27.9847 5.10848 32.5809 5.56291 36.7578 7.29972C40.9347 9.03652 44.5048 11.9777 47.0165 15.7513C49.5283 19.5249 50.8689 23.9615 50.8689 28.5C50.8566 34.5821 48.4443 40.4116 44.1601 44.7123C39.8759 49.013 34.0689 51.4347 28.0101 51.447ZM28.5466 15.083H18.0735V26.2521H23.6483V20.6793H28.5466C30.0511 20.6801 31.5003 21.2488 32.6065 22.2725C33.7127 23.2962 34.3949 24.7 34.5179 26.2053H40.1159C39.9662 23.2028 38.6717 20.3732 36.5005 18.3026C34.3294 16.2321 31.448 15.0793 28.4533 15.083M28.4533 30.1859H18.0735V41.3784H23.6483V35.8056H28.5466C30.0511 35.8064 31.5003 36.3751 32.6065 37.3988C33.7127 38.4225 34.3949 39.8263 34.5179 41.3316H40.1159C39.972 38.325 38.68 35.4895 36.5083 33.414C34.3365 31.3385 31.4518 30.1824 28.4533 30.1859Z" fill="#48B063"/>
</g>
</g>
</svg>
