<svg width="266" height="369" viewBox="0 0 266 369" fill="none" xmlns="http://www.w3.org/2000/svg">
<path d="M129.5 69C109.476 69 90.2723 76.9544 76.1133 91.1134C61.9543 105.272 54 124.476 54 144.5C54 164.524 61.9543 183.728 76.1133 197.887C90.2723 212.046 109.476 220 129.5 220C149.524 220 168.728 212.046 182.887 197.887C197.046 183.728 205 164.524 205 144.5C205 124.476 197.046 105.272 182.887 91.1134C168.728 76.9544 149.524 69 129.5 69ZM129.5 207.11C112.903 207.061 97.0011 200.444 85.2689 188.705C73.5368 176.966 66.9291 161.06 66.8902 144.463C66.9145 127.857 73.5159 111.937 85.2496 100.186C96.9833 88.4346 112.894 81.81 129.5 81.7613C146.125 81.7808 162.064 88.3926 173.822 100.147C185.579 111.901 192.196 127.838 192.22 144.463C192.201 161.092 185.586 177.033 173.828 188.792C162.07 200.55 146.128 207.164 129.5 207.183V207.11ZM131.01 107.671H102.302V138.239H117.623V123.01H131.01C135.132 123.019 139.101 124.577 142.129 127.373C145.158 130.17 147.025 134.002 147.362 138.11H162.72C162.346 129.953 158.845 122.253 152.944 116.609C147.042 110.965 139.194 107.81 131.029 107.8L131.01 107.671ZM131.01 148.975H102.302V179.543H117.623V164.314H131.01C135.131 164.319 139.099 165.872 142.128 168.666C145.157 171.459 147.025 175.289 147.362 179.396H162.72C162.342 171.242 158.839 163.546 152.938 157.906C147.037 152.266 139.191 149.114 131.029 149.104L131.01 148.975Z" fill="#1D3723"/>
<path d="M179.207 192.245C179.207 192.245 162.844 189.796 136.179 229.212C109.514 268.629 118.755 287.954 118.755 287.954C118.755 287.954 121.081 301.407 144.479 298.28C144.479 298.28 144.214 315.569 142.86 330.734C141.506 345.899 138.239 368.38 138.239 368.38H251.961L248.282 307.249C248.282 307.249 264.528 304.299 265.235 283.115C265.941 261.932 257.671 231.307 255.787 225.2C253.904 219.093 248.106 201.597 230.153 196.021C212.2 190.445 186.948 190.002 179.207 192.245Z" fill="#37C150"/>
<path d="M209.285 184.869L207.932 167.167C207.932 167.167 215.613 169.881 218.291 162.564C218.79 161.377 218.962 160.078 218.792 158.802C218.621 157.526 218.114 156.318 217.321 155.304C216.529 154.29 215.481 153.507 214.286 153.036C213.09 152.564 211.791 152.421 210.522 152.622C208.432 152.928 206.521 153.975 205.136 155.572C200.756 150.545 197.558 144.596 195.777 138.165C195.777 138.165 187.448 148.55 175.793 144.567C175.793 144.567 175.381 161.856 175.469 166.311C175.557 170.766 173.615 181.211 184.593 182.214V185.489L190.479 205.757L209.285 184.869Z" fill="white"/>
<path d="M179.619 244.584C176.394 240.866 172.144 238.187 167.405 236.884C159.812 234.995 153.866 236.53 152.689 239.362C152.689 239.362 140.917 241.486 143.007 249.688C146.806 248.553 150.866 248.656 154.603 249.983C159.058 251.383 163.135 253.785 166.523 257.005C166.523 257.005 173.262 247.593 179.619 244.584Z" fill="white"/>
<path d="M200.604 254.645C200.604 254.645 202.899 248.744 211.876 251.694C213.919 251.078 216.067 250.894 218.185 251.153C220.302 251.412 222.343 252.109 224.178 253.199C225.401 252.768 226.699 252.587 227.993 252.669C229.288 252.75 230.552 253.091 231.713 253.671C236.186 255.559 238.894 263.437 239.836 266.623C240.777 269.809 238.658 275.327 232.919 273.084C232.448 273.084 231.83 277.392 227.033 276.979C225.448 276.663 223.966 275.958 222.718 274.929C221.47 273.899 220.496 272.576 219.881 271.078C219.881 271.078 218.557 275.887 214.378 275.238C213.043 275.124 211.779 274.583 210.773 273.697C209.767 272.81 209.07 271.623 208.785 270.311C208.902 267.967 208.813 265.617 208.52 263.289C208.049 262.079 204.783 256.769 204.783 256.769L200.604 254.645Z" fill="white"/>
<path d="M184.622 185.253L179.207 192.245L179.825 220.244L178.972 243.64L183.681 246.531L191.245 246.325L199.544 221.306L201.752 225.2L216.555 191.979L207.549 182.804L184.622 185.253Z" fill="white"/>
<path d="M190.391 205.521L183.504 216.172L184.593 224.581L179.825 233.638L179.354 243.876L183.681 246.531L191.245 246.325L192.863 241.457L192.687 239.421L191.245 224.581L196.866 217.205L190.391 205.521Z" fill="#37C150"/>
<path d="M216.497 154.097C217.994 152.507 219.074 150.57 219.639 148.458C220.204 146.347 220.237 144.128 219.734 142C218.468 133.739 216.997 128.694 200.81 130.199C198.872 127.911 196.336 126.211 193.487 125.288C190.637 124.366 187.588 124.258 184.682 124.977C174.94 127.691 171.673 133.12 170.82 138.047C169.966 142.974 175.234 151.471 175.234 151.471V144.302C175.234 144.302 188.243 147.606 195.836 137.929C195.836 137.929 200.78 152.002 205.195 155.336C205.136 155.336 208.668 149.583 216.497 154.097Z" fill="white"/>
<path d="M191.245 208.442L186.859 216.467L188.095 224.905L179.825 244.938L179.207 233.815L184.24 224.433L183.21 215.671L190.244 205.964L191.245 208.442Z" fill="white"/>
<path d="M232.419 310.052C208.727 310.052 178.354 294.445 158.399 278.631C159.035 272.208 160.871 265.962 163.814 260.221C167.443 253.46 172.914 247.873 179.59 244.112C180.149 244.112 205.107 256.68 205.107 256.68C204.518 257.801 179.884 245.38 179.884 245.38C173.601 249.063 168.434 254.386 164.933 260.781C162.303 266.194 160.459 271.957 159.459 277.893C179.266 293.471 209.139 308.783 232.419 308.783H233.979C247.517 308.37 255.935 304.8 260.467 297.484C256.729 305.833 247.988 309.639 233.979 310.052H232.419Z" fill="#1A1A1A"/>
<path d="M261.144 298.428C264.293 291.553 265.5 282.997 264.293 271.343C262.407 254.527 258.848 237.942 253.668 221.837C247.546 202.748 227.857 193.454 216.497 193.159C228.269 192.186 248.548 201.774 254.758 221.423C259.951 237.628 263.52 254.311 265.411 271.225C266.677 283.027 265.411 291.878 261.556 298.133C261.51 298.207 261.45 298.271 261.38 298.322C261.309 298.373 261.229 298.409 261.144 298.428Z" fill="#1A1A1A"/>
<path d="M226.179 252.255C225.132 244.576 225.192 236.786 226.356 229.124C227.563 229.449 225.621 241.781 226.798 251.547C226.239 252.225 226.209 252.255 226.179 252.255Z" fill="#1A1A1A"/>
<path d="M194.305 152.976C193.805 152.976 193.481 152.976 193.334 154.923C193.187 156.87 193.717 157.313 194.188 157.283C194.659 157.254 195.071 156.634 195.041 155.188C195.012 153.743 194.982 153.064 194.305 152.976Z" fill="#1A1A1A"/>
<path d="M179.619 153.241C179.119 153.241 178.795 153.241 178.707 155.218C178.618 157.195 179.148 157.578 179.59 157.549C180.031 157.519 180.473 156.87 180.414 155.424C180.355 153.979 180.296 153.33 179.619 153.241Z" fill="#1A1A1A"/>
<path d="M208.874 185.843C208.256 185.253 207.226 167.108 207.226 167.108C208.462 167.108 209.521 185.164 209.521 185.164C208.874 185.843 208.874 185.843 208.874 185.843Z" fill="#1A1A1A"/>
<path d="M185.976 182.626C184.314 182.849 182.622 182.628 181.072 181.986C179.522 181.343 178.168 180.302 177.147 178.968C175.276 175.333 174.47 171.242 174.822 167.167C174.822 166.311 174.822 165.455 174.822 164.659C174.822 162.004 174.999 144.921 175.028 144.213C176.264 144.419 175.97 161.915 176.058 164.6C176.058 165.426 176.058 166.282 176.058 167.137C175.705 170.942 176.44 174.77 178.177 178.171C180.355 181.417 184.064 181.299 187.802 181.122H189.185C191.856 181.115 194.519 180.829 197.131 180.266C194.823 181.909 192.002 182.663 189.185 182.39H185.918L185.976 182.626Z" fill="#1A1A1A"/>
<path d="M211.052 168.376C209.265 168.374 207.527 167.784 206.108 166.695C207.652 167.28 209.316 167.476 210.953 167.265C212.59 167.054 214.15 166.443 215.496 165.485C216.201 164.901 216.784 164.183 217.212 163.373C217.64 162.563 217.903 161.676 217.988 160.763C218.073 159.85 217.977 158.929 217.706 158.054C217.435 157.178 216.994 156.365 216.409 155.66C215.825 154.95 215.104 154.365 214.29 153.94C213.476 153.514 212.585 153.256 211.67 153.182C210.76 153.094 209.843 153.187 208.969 153.455C208.095 153.724 207.283 154.162 206.578 154.746C205.652 155.538 204.943 156.553 204.518 157.696C204.245 157.001 204.221 156.232 204.452 155.521C204.683 154.81 205.154 154.202 205.784 153.802C207.419 152.417 209.536 151.738 211.67 151.914C212.746 152.013 213.791 152.325 214.745 152.831C215.7 153.338 216.546 154.028 217.233 154.864C218.609 156.507 219.285 158.626 219.116 160.765C219.018 161.847 218.707 162.9 218.202 163.861C217.697 164.823 217.007 165.676 216.173 166.37C214.743 167.603 212.937 168.31 211.052 168.376Z" fill="#1A1A1A"/>
<path d="M175.793 150.94C175.234 150.025 176.735 146.868 181.209 147.989C180.251 147.976 179.305 148.208 178.461 148.662C177.616 149.116 176.901 149.778 176.382 150.586C176.327 150.694 176.242 150.785 176.138 150.847C176.034 150.91 175.915 150.942 175.793 150.94Z" fill="#1A1A1A"/>
<path d="M197.484 151.146C194.011 147.163 191.126 148.963 191.009 149.052C190.361 147.96 194.305 145.482 197.984 150.114C197.749 151.146 197.631 151.146 197.484 151.146Z" fill="#1A1A1A"/>
<path d="M184.623 185.872C184.004 185.252 183.975 181.978 183.975 181.978C185.241 181.978 185.24 185.252 185.24 185.252L184.623 185.872Z" fill="#1A1A1A"/>
<path d="M216.408 154.923C219.274 150.226 220.183 144.589 218.939 139.227C218.502 137.376 217.607 135.665 216.337 134.252C215.066 132.84 213.461 131.77 211.67 131.143C209.601 130.522 207.426 130.341 205.283 130.612C203.988 130.612 201.486 130.848 201.369 130.848C201.369 129.579 203.9 129.461 205.166 129.343C207.479 129.071 209.824 129.281 212.053 129.963C214.035 130.637 215.817 131.801 217.231 133.348C218.646 134.895 219.648 136.775 220.146 138.814C220.888 141.452 221.008 144.227 220.497 146.92C219.986 149.613 218.859 152.151 217.203 154.333C216.762 154.834 216.585 154.923 216.408 154.923Z" fill="#1A1A1A"/>
<path d="M213.495 164.688C213.2 164.688 207.284 161.738 207.284 161.738C207.108 160.735 212.435 155.218 212.435 155.218C213.347 156.073 208.609 161.118 208.609 161.118L213.759 163.626C213.936 164.57 213.701 164.688 213.495 164.688Z" fill="#1A1A1A"/>
<path d="M198.278 134.654C197.808 133.621 200.839 129.786 200.839 129.786C201.84 130.553 198.779 134.418 198.779 134.418C198.717 134.49 198.641 134.549 198.554 134.589C198.468 134.63 198.374 134.652 198.278 134.654Z" fill="#1A1A1A"/>
<path d="M227.298 277.657C226.197 277.651 225.108 277.424 224.097 276.988C223.086 276.552 222.173 275.917 221.411 275.12C221.411 275.12 218.763 272.17 219.175 269.898C220.175 271.314 221.47 273.291 222.353 274.264C222.993 274.933 223.76 275.465 224.61 275.83C225.459 276.195 226.373 276.385 227.298 276.389C228.109 276.417 228.914 276.223 229.624 275.828C230.335 275.433 230.924 274.852 231.329 274.146C231.717 273.214 231.879 272.203 231.801 271.196C231.801 264.823 229.475 256.798 223.265 253.494C221.608 252.497 219.751 251.88 217.828 251.686C215.905 251.493 213.963 251.727 212.141 252.373C211.846 251.104 217.38 248.744 223.913 252.373C230.447 256.002 233.037 264.617 233.096 271.343C233.155 272.514 232.954 273.683 232.507 274.766C232.034 275.648 231.334 276.386 230.48 276.905C229.626 277.424 228.649 277.704 227.65 277.716L227.298 277.657Z" fill="#1A1A1A"/>
<path d="M197.601 254.172C198.26 251.774 199.738 249.684 201.776 248.266C203.815 246.848 206.285 246.192 208.756 246.413C210.364 246.43 211.946 246.813 213.384 247.534C214.822 248.254 216.078 249.294 217.056 250.573C214.559 248.905 211.685 247.89 208.697 247.623C206.522 247.491 204.357 248.009 202.476 249.112C200.595 250.215 199.083 251.853 198.132 253.818C198.084 253.92 198.009 254.007 197.915 254.069C197.822 254.131 197.713 254.167 197.601 254.172Z" fill="#1A1A1A"/>
<path d="M140.092 299.047C132.499 299.047 125.907 297.897 122.434 294.651C107.512 279.899 123.081 250.838 128.32 241.25C134.206 230.452 154.809 194.959 180.355 190.858C155.603 196.11 135.089 231.189 129.409 241.84C115.812 267.331 113.84 284.325 123.523 293.737C133.706 303.768 179.443 291.996 179.796 291.878C178.766 293.441 156.986 299.047 140.092 299.047Z" fill="#1A1A1A"/>
<path d="M205.136 155.985C200.81 151.118 197.542 145.4 195.541 139.197C193.01 141.852 189.818 143.781 186.295 144.787C182.772 145.793 179.045 145.839 175.499 144.921C179.147 145.502 182.884 145.131 186.348 143.844C189.812 142.558 192.886 140.398 195.276 137.575C196.424 137.87 199.868 148.934 205.607 154.893C205.46 155.896 205.313 155.985 205.136 155.985Z" fill="#1A1A1A"/>
<path d="M138.239 369C142.948 341.178 143.801 298.693 143.801 298.191C145.067 298.663 144.184 341.267 138.857 368.439C138.842 368.593 138.771 368.736 138.656 368.84C138.542 368.943 138.393 369 138.239 369Z" fill="#1A1A1A"/>
<path d="M251.99 369C251.431 356.697 247.723 307.78 247.694 307.308C248.959 307.692 252.697 356.667 252.609 368.38C252.609 368.545 252.544 368.702 252.428 368.818C252.312 368.935 252.154 369 251.99 369Z" fill="#1A1A1A"/>
<path d="M201.87 225.76C201.34 225.465 190.097 206.937 190.097 206.937L180.326 220.745C179.178 220.391 179.001 192.805 179.001 192.805L184.093 184.898C185.241 185.105 190.45 204.518 190.45 204.518L208.815 184.456C211.748 186.761 214.476 189.318 216.967 192.097C216.967 192.805 202.458 225.406 202.458 225.406L201.87 225.76ZM190.921 205.875L201.781 223.784L215.761 192.658L209.286 185.783L190.921 205.875ZM180.237 192.982L180.414 218.444L189.449 205.669L184.387 186.757L180.237 192.982Z" fill="#1A1A1A"/>
<path d="M190.921 246.973C193.04 238.171 195.734 229.518 198.985 221.069C200.103 221.659 195.424 233.49 191.539 246.531C191.496 246.66 191.412 246.773 191.301 246.853C191.19 246.932 191.057 246.974 190.921 246.973Z" fill="#1A1A1A"/>
<path d="M178.972 244.259C178.614 235.845 178.978 227.415 180.061 219.063C181.297 219.359 179.826 227.915 179.59 243.64C179.59 243.804 179.525 243.962 179.409 244.078C179.293 244.194 179.136 244.259 178.972 244.259Z" fill="#1A1A1A"/>
<path d="M208.874 247.652C208.874 247.652 195.424 247.18 183.798 247.033C192.148 246.35 200.529 246.133 208.903 246.383C209.345 247.387 209.08 247.652 208.874 247.652Z" fill="#1A1A1A"/>
<path d="M130.204 268.275C132.5 257.624 136.767 251.871 143.389 248.832C143.536 248.832 144.831 248.567 144.831 248.567C156.604 246.531 166.611 256.149 167.023 256.562C166.051 257.359 156.163 247.711 145.038 249.806C137.621 252.756 133.589 258.391 130.822 267.833C130.788 267.968 130.707 268.086 130.594 268.167C130.48 268.248 130.343 268.286 130.204 268.275Z" fill="#1A1A1A"/>
<path d="M142.801 249.835C142.183 249.334 140.534 243.935 148.334 240.394C156.133 236.854 164.786 242.695 165.139 242.931C164.374 243.935 155.81 238.447 148.834 241.545C141.859 244.643 143.331 248.832 143.389 249.009C142.918 249.835 142.86 249.835 142.801 249.835Z" fill="#1A1A1A"/>
<path d="M179.62 245.203C175.77 241.598 171.208 238.843 166.228 237.119C163.904 236.173 161.343 235.98 158.905 236.568C156.466 237.155 154.272 238.493 152.631 240.394C151.689 239.568 157.134 232.546 166.64 235.939C171.735 237.522 176.358 240.35 180.09 244.171C179.914 245.144 179.767 245.203 179.62 245.203Z" fill="#1A1A1A"/>
<path d="M191.421 225.849L184.181 225.2C183.485 221.953 183.022 218.659 182.797 215.346C184.063 215.346 184.829 223.99 184.829 223.99L191.097 224.551L196.572 216.85C197.602 217.588 191.921 225.701 191.921 225.701C191.853 225.759 191.773 225.803 191.686 225.828C191.6 225.853 191.51 225.86 191.421 225.849Z" fill="#1A1A1A"/>
<path d="M192.687 241.28C191.779 235.975 191.141 230.628 190.774 225.259C192.039 225.259 193.334 240.601 193.334 240.601C192.745 241.28 192.716 241.28 192.687 241.28Z" fill="#1A1A1A"/>
<path d="M179.207 235.526C178.648 234.612 183.681 224.315 183.681 224.315C184.829 224.876 179.767 235.172 179.767 235.172C179.717 235.278 179.637 235.368 179.538 235.431C179.439 235.493 179.324 235.526 179.207 235.526Z" fill="#1A1A1A"/>
<path d="M159.665 236.47C159.105 235.349 160.783 226.41 164.079 220.007C161.99 226.823 160.282 235.88 160.282 235.969C160.255 236.112 160.178 236.241 160.065 236.332C159.952 236.424 159.81 236.473 159.665 236.47Z" fill="#1A1A1A"/>
<path d="M214.76 276.064C213.595 276.068 212.447 275.781 211.42 275.23C210.393 274.679 209.518 273.881 208.874 272.907C208.223 271.569 207.919 270.087 207.991 268.6C208.166 266.617 207.986 264.619 207.462 262.699C206.753 260.89 205.759 259.206 204.518 257.713C205.528 258.092 206.435 258.703 207.166 259.497C207.897 260.291 208.431 261.247 208.727 262.286C209.277 264.049 209.487 265.902 209.345 267.744C209.161 269.324 209.405 270.924 210.051 272.376C210.534 273.117 211.187 273.731 211.955 274.167C212.723 274.603 213.584 274.849 214.466 274.884C215.318 274.977 216.18 274.813 216.938 274.412C217.513 273.997 217.997 273.469 218.362 272.86C218.726 272.252 218.963 271.575 219.057 270.871C219.277 269.902 219.406 268.914 219.44 267.921C219.831 263.831 218.791 259.732 216.497 256.326C215.441 254.884 214.076 253.698 212.502 252.856C210.928 252.013 209.185 251.535 207.403 251.458C206.148 251.382 204.899 251.673 203.806 252.296C202.714 252.92 201.826 253.848 201.251 254.969C200.162 254.32 201.869 250.248 207.314 250.189C209.305 250.261 211.254 250.781 213.017 251.711C214.779 252.64 216.311 253.955 217.497 255.559C220.008 259.184 221.136 263.592 220.676 267.98C220.62 269.043 220.473 270.099 220.235 271.137C220.114 272.007 219.813 272.842 219.352 273.589C218.891 274.335 218.279 274.977 217.556 275.474C216.7 275.936 215.73 276.14 214.76 276.064Z" fill="#1A1A1A"/>
<path d="M189.214 172.979C188.461 172.96 187.716 172.82 187.007 172.566C188.802 171.858 189.949 171.828 190.862 171.297C191.828 170.583 192.491 169.529 192.716 168.347C193.923 168.642 193.511 171.297 191.51 172.389C190.814 172.796 190.019 173 189.214 172.979Z" fill="#1A1A1A"/>
<path d="M235.509 274.146C234.38 274.097 233.261 273.898 232.183 273.556C233.949 272.73 235.921 273.261 237.363 272.435C237.939 271.991 238.404 271.418 238.721 270.763C239.037 270.107 239.197 269.387 239.188 268.658C239.541 263.023 235.509 258.008 233.066 255.529C231.807 254.442 230.298 253.684 228.675 253.324C227.052 252.964 225.366 253.012 223.766 253.464C223.766 252.196 229.652 250.366 233.979 254.644C236.539 257.27 240.836 262.61 240.454 268.717C240.454 269.659 240.23 270.586 239.8 271.423C239.37 272.259 238.746 272.981 237.981 273.527C237.225 273.945 236.373 274.158 235.509 274.146Z" fill="#1A1A1A"/>
<path d="M185.505 167.167C183.721 167.321 181.942 166.817 180.502 165.75C180.257 165.491 180.08 165.174 179.988 164.829C179.895 164.484 179.89 164.121 179.972 163.774C180.502 160.646 183.386 151.117 183.503 150.704C184.681 151.176 181.738 160.912 181.208 164.01C182.386 165.957 185.564 165.927 186.623 165.868C186.594 167.137 186.123 167.167 185.505 167.167Z" fill="#1A1A1A"/>
<path d="M175.234 152.12C174.616 151.707 164.992 138.313 174.086 129.963C182.592 122.115 193.511 122.027 201.28 129.757C197.53 126.578 192.725 124.929 187.819 125.136C182.912 125.344 178.262 127.393 174.792 130.878C166.522 138.49 175.499 150.97 175.587 151.117C175.499 152.061 175.352 152.12 175.234 152.12Z" fill="#1A1A1A"/>
</svg>
