<svg width="594" height="594" viewBox="0 0 594 594" fill="none" xmlns="http://www.w3.org/2000/svg">
<circle cx="297" cy="297" r="129.5" stroke="#1C3622"/>
<circle opacity="0.8" cx="297" cy="297" r="171.5" stroke="#1C3622" stroke-opacity="0.5"/>
<circle opacity="0.6" cx="297" cy="297" r="212.5" stroke="#1C3622" stroke-opacity="0.3"/>
<circle opacity="0.4" cx="297" cy="297" r="256.5" stroke="#1C3622" stroke-opacity="0.1"/>
<circle opacity="0.2" cx="297" cy="297" r="296.5" stroke="#1C3622" stroke-opacity="0.05"/>
<path d="M297.5 226C277.476 226 258.272 233.954 244.113 248.113C229.954 262.272 222 281.476 222 301.5C222 321.524 229.954 340.728 244.113 354.887C258.272 369.046 277.476 377 297.5 377C317.524 377 336.728 369.046 350.887 354.887C365.046 340.728 373 321.524 373 301.5C373 281.476 365.046 262.272 350.887 248.113C336.728 233.954 317.524 226 297.5 226ZM297.5 364.11C280.903 364.061 265.001 357.444 253.269 345.705C241.537 333.966 234.929 318.06 234.89 301.463C234.915 284.857 241.516 268.937 253.25 257.186C264.983 245.435 280.894 238.81 297.5 238.761C314.125 238.781 330.064 245.393 341.822 257.147C353.579 268.901 360.196 284.838 360.22 301.463C360.201 318.092 353.586 334.033 341.828 345.792C330.07 357.55 314.128 364.164 297.5 364.183V364.11ZM299.01 264.671H270.302V295.239H285.623V280.01H299.01C303.132 280.019 307.101 281.577 310.129 284.373C313.158 287.17 315.025 291.002 315.362 295.11H330.72C330.346 286.953 326.845 279.253 320.944 273.609C315.042 267.965 307.194 264.81 299.029 264.8L299.01 264.671ZM299.01 305.975H270.302V336.543H285.623V321.314H299.01C303.131 321.319 307.099 322.872 310.128 325.666C313.157 328.459 315.025 332.289 315.362 336.396H330.72C330.342 328.242 326.839 320.546 320.938 314.906C315.037 309.266 307.191 306.114 299.029 306.104L299.01 305.975Z" fill="#1D3723"/>
<path d="M347.207 349.245C347.207 349.245 330.844 346.796 304.179 386.212C277.514 425.629 286.755 444.954 286.755 444.954C286.755 444.954 289.081 458.407 312.479 455.28C312.479 455.28 312.214 472.569 310.86 487.734C309.506 502.899 306.239 525.38 306.239 525.38H419.961L416.282 464.249C416.282 464.249 432.528 461.299 433.235 440.115C433.941 418.932 425.671 388.307 423.787 382.2C421.904 376.093 416.106 358.597 398.153 353.021C380.2 347.445 354.948 347.002 347.207 349.245Z" fill="#37C150"/>
<path d="M377.285 341.869L375.932 324.167C375.932 324.167 383.613 326.881 386.291 319.564C386.79 318.377 386.962 317.078 386.792 315.802C386.621 314.526 386.114 313.318 385.321 312.304C384.529 311.29 383.481 310.507 382.286 310.036C381.09 309.564 379.791 309.421 378.522 309.622C376.432 309.928 374.521 310.975 373.136 312.572C368.756 307.545 365.558 301.596 363.777 295.165C363.777 295.165 355.448 305.55 343.793 301.567C343.793 301.567 343.381 318.856 343.469 323.311C343.557 327.766 341.615 338.211 352.593 339.214V342.489L358.479 362.757L377.285 341.869Z" fill="white"/>
<path d="M347.619 401.584C344.394 397.866 340.144 395.187 335.405 393.884C327.812 391.995 321.866 393.53 320.689 396.362C320.689 396.362 308.917 398.486 311.007 406.688C314.806 405.553 318.866 405.656 322.603 406.983C327.058 408.383 331.135 410.785 334.523 414.005C334.523 414.005 341.262 404.593 347.619 401.584Z" fill="white"/>
<path d="M368.604 411.645C368.604 411.645 370.899 405.744 379.876 408.694C381.919 408.078 384.067 407.894 386.185 408.153C388.302 408.412 390.343 409.109 392.178 410.199C393.401 409.768 394.699 409.587 395.993 409.669C397.288 409.75 398.552 410.091 399.713 410.671C404.186 412.559 406.894 420.437 407.836 423.623C408.777 426.809 406.658 432.327 400.919 430.084C400.448 430.084 399.83 434.392 395.033 433.979C393.448 433.663 391.966 432.958 390.718 431.929C389.47 430.899 388.496 429.576 387.881 428.078C387.881 428.078 386.557 432.887 382.378 432.238C381.043 432.124 379.779 431.583 378.773 430.697C377.767 429.81 377.07 428.623 376.785 427.311C376.902 424.967 376.813 422.617 376.52 420.289C376.049 419.079 372.783 413.769 372.783 413.769L368.604 411.645Z" fill="white"/>
<path d="M352.622 342.253L347.207 349.245L347.825 377.244L346.972 400.64L351.681 403.531L359.245 403.325L367.544 378.306L369.752 382.2L384.555 348.979L375.549 339.804L352.622 342.253Z" fill="white"/>
<path d="M358.391 362.521L351.504 373.172L352.593 381.581L347.825 390.638L347.354 400.876L351.681 403.531L359.245 403.325L360.863 398.457L360.687 396.421L359.245 381.581L364.866 374.205L358.391 362.521Z" fill="#37C150"/>
<path d="M384.497 311.097C385.994 309.507 387.074 307.57 387.639 305.458C388.204 303.347 388.237 301.128 387.734 299C386.468 290.739 384.997 285.694 368.81 287.199C366.872 284.911 364.336 283.211 361.487 282.288C358.637 281.366 355.588 281.258 352.682 281.977C342.94 284.691 339.673 290.12 338.82 295.047C337.966 299.974 343.234 308.471 343.234 308.471V301.302C343.234 301.302 356.243 304.606 363.836 294.929C363.836 294.929 368.78 309.002 373.195 312.336C373.136 312.336 376.668 306.583 384.497 311.097Z" fill="white"/>
<path d="M359.245 365.442L354.859 373.467L356.095 381.905L347.825 401.938L347.207 390.815L352.24 381.433L351.21 372.671L358.244 362.964L359.245 365.442Z" fill="white"/>
<path d="M400.419 467.052C376.727 467.052 346.354 451.445 326.399 435.631C327.035 429.208 328.871 422.962 331.814 417.221C335.443 410.46 340.914 404.873 347.59 401.112C348.149 401.112 373.107 413.68 373.107 413.68C372.518 414.801 347.884 402.38 347.884 402.38C341.601 406.063 336.434 411.386 332.933 417.781C330.303 423.194 328.459 428.957 327.459 434.893C347.266 450.471 377.139 465.783 400.419 465.783H401.979C415.517 465.37 423.935 461.8 428.467 454.484C424.729 462.833 415.988 466.639 401.979 467.052H400.419Z" fill="#1A1A1A"/>
<path d="M429.144 455.428C432.293 448.553 433.5 439.997 432.293 428.343C430.407 411.527 426.848 394.942 421.668 378.837C415.546 359.748 395.857 350.454 384.497 350.159C396.269 349.186 416.548 358.774 422.758 378.423C427.951 394.628 431.52 411.311 433.411 428.225C434.677 440.027 433.411 448.878 429.556 455.133C429.51 455.207 429.45 455.271 429.38 455.322C429.309 455.373 429.229 455.409 429.144 455.428Z" fill="#1A1A1A"/>
<path d="M394.179 409.255C393.132 401.576 393.192 393.786 394.356 386.124C395.563 386.449 393.621 398.781 394.798 408.547C394.239 409.225 394.209 409.255 394.179 409.255Z" fill="#1A1A1A"/>
<path d="M362.305 309.976C361.805 309.976 361.481 309.976 361.334 311.923C361.187 313.87 361.717 314.313 362.188 314.283C362.658 314.254 363.071 313.634 363.041 312.188C363.012 310.743 362.982 310.064 362.305 309.976Z" fill="#1A1A1A"/>
<path d="M347.619 310.241C347.119 310.241 346.795 310.241 346.706 312.218C346.618 314.195 347.148 314.578 347.59 314.549C348.031 314.519 348.473 313.87 348.414 312.424C348.355 310.979 348.296 310.33 347.619 310.241Z" fill="#1A1A1A"/>
<path d="M376.874 342.843C376.256 342.253 375.226 324.108 375.226 324.108C376.462 324.108 377.521 342.164 377.521 342.164C376.874 342.843 376.874 342.843 376.874 342.843Z" fill="#1A1A1A"/>
<path d="M353.976 339.626C352.314 339.849 350.622 339.628 349.072 338.986C347.522 338.343 346.168 337.302 345.147 335.968C343.276 332.333 342.47 328.242 342.822 324.167C342.822 323.311 342.822 322.455 342.822 321.659C342.822 319.004 342.999 301.921 343.028 301.213C344.264 301.419 343.97 318.915 344.058 321.6C344.058 322.426 344.058 323.282 344.058 324.137C343.705 327.942 344.44 331.77 346.177 335.171C348.355 338.417 352.064 338.299 355.802 338.122H357.185C359.856 338.115 362.519 337.829 365.131 337.266C362.823 338.909 360.002 339.663 357.185 339.39H353.918L353.976 339.626Z" fill="#1A1A1A"/>
<path d="M379.052 325.376C377.265 325.374 375.527 324.784 374.108 323.695C375.652 324.28 377.316 324.476 378.953 324.265C380.59 324.054 382.15 323.443 383.496 322.485C384.201 321.901 384.784 321.183 385.212 320.373C385.64 319.563 385.903 318.676 385.988 317.763C386.073 316.85 385.977 315.929 385.706 315.054C385.435 314.178 384.994 313.365 384.409 312.66C383.825 311.95 383.104 311.365 382.29 310.94C381.476 310.514 380.585 310.256 379.67 310.182C378.76 310.094 377.843 310.187 376.969 310.455C376.095 310.724 375.283 311.162 374.578 311.746C373.652 312.538 372.943 313.553 372.518 314.696C372.245 314.001 372.221 313.232 372.452 312.521C372.683 311.81 373.154 311.202 373.784 310.802C375.419 309.417 377.536 308.738 379.67 308.914C380.745 309.013 381.791 309.325 382.745 309.831C383.7 310.338 384.546 311.028 385.233 311.864C386.609 313.507 387.285 315.626 387.116 317.765C387.018 318.847 386.707 319.9 386.202 320.861C385.697 321.823 385.007 322.676 384.173 323.37C382.743 324.603 380.937 325.31 379.052 325.376Z" fill="#1A1A1A"/>
<path d="M343.793 307.94C343.234 307.025 344.735 303.868 349.209 304.989C348.251 304.976 347.305 305.208 346.461 305.662C345.616 306.116 344.901 306.778 344.382 307.586C344.327 307.694 344.242 307.785 344.138 307.847C344.034 307.91 343.915 307.942 343.793 307.94Z" fill="#1A1A1A"/>
<path d="M365.484 308.146C362.011 304.163 359.126 305.963 359.009 306.052C358.361 304.96 362.305 302.482 365.984 307.114C365.749 308.146 365.631 308.146 365.484 308.146Z" fill="#1A1A1A"/>
<path d="M352.623 342.872C352.004 342.252 351.975 338.978 351.975 338.978C353.241 338.978 353.24 342.252 353.24 342.252L352.623 342.872Z" fill="#1A1A1A"/>
<path d="M384.408 311.923C387.274 307.226 388.183 301.589 386.939 296.227C386.502 294.376 385.607 292.665 384.337 291.252C383.066 289.84 381.461 288.77 379.67 288.143C377.601 287.522 375.426 287.341 373.283 287.612C371.988 287.612 369.486 287.848 369.369 287.848C369.369 286.579 371.9 286.461 373.165 286.343C375.479 286.071 377.824 286.281 380.053 286.963C382.035 287.637 383.816 288.801 385.231 290.348C386.646 291.895 387.648 293.775 388.146 295.814C388.888 298.452 389.008 301.227 388.497 303.92C387.986 306.613 386.859 309.151 385.203 311.333C384.762 311.834 384.585 311.923 384.408 311.923Z" fill="#1A1A1A"/>
<path d="M381.495 321.688C381.2 321.688 375.284 318.738 375.284 318.738C375.108 317.735 380.435 312.218 380.435 312.218C381.347 313.073 376.609 318.118 376.609 318.118L381.759 320.626C381.936 321.57 381.701 321.688 381.495 321.688Z" fill="#1A1A1A"/>
<path d="M366.278 291.654C365.808 290.621 368.839 286.786 368.839 286.786C369.84 287.553 366.779 291.418 366.779 291.418C366.717 291.49 366.641 291.549 366.554 291.589C366.468 291.63 366.374 291.652 366.278 291.654Z" fill="#1A1A1A"/>
<path d="M395.298 434.657C394.197 434.651 393.108 434.424 392.097 433.988C391.086 433.552 390.173 432.917 389.411 432.12C389.411 432.12 386.763 429.17 387.175 426.898C388.175 428.314 389.47 430.291 390.353 431.264C390.993 431.933 391.76 432.465 392.61 432.83C393.459 433.195 394.373 433.385 395.298 433.389C396.109 433.417 396.914 433.223 397.624 432.828C398.335 432.433 398.924 431.852 399.329 431.146C399.717 430.214 399.879 429.203 399.801 428.196C399.801 421.823 397.475 413.798 391.265 410.494C389.608 409.497 387.751 408.88 385.828 408.686C383.905 408.493 381.963 408.727 380.141 409.373C379.846 408.104 385.38 405.744 391.913 409.373C398.447 413.002 401.037 421.617 401.096 428.343C401.155 429.514 400.954 430.683 400.507 431.766C400.034 432.648 399.334 433.386 398.48 433.905C397.626 434.424 396.649 434.704 395.65 434.716L395.298 434.657Z" fill="#1A1A1A"/>
<path d="M365.601 411.172C366.26 408.774 367.738 406.684 369.776 405.266C371.815 403.848 374.285 403.192 376.756 403.413C378.364 403.43 379.946 403.813 381.384 404.534C382.822 405.254 384.078 406.294 385.056 407.573C382.559 405.905 379.685 404.89 376.697 404.623C374.522 404.491 372.357 405.009 370.476 406.112C368.595 407.215 367.083 408.853 366.132 410.818C366.084 410.92 366.009 411.007 365.915 411.069C365.822 411.131 365.713 411.167 365.601 411.172Z" fill="#1A1A1A"/>
<path d="M308.093 456.047C300.499 456.047 293.907 454.897 290.434 451.651C275.512 436.899 291.081 407.838 296.32 398.25C302.206 387.452 322.809 351.959 348.355 347.858C323.603 353.11 303.09 388.189 297.409 398.84C283.812 424.331 281.84 441.325 291.523 450.737C301.706 460.768 347.443 448.996 347.796 448.878C346.766 450.441 324.986 456.047 308.093 456.047Z" fill="#1A1A1A"/>
<path d="M373.136 312.985C368.81 308.118 365.542 302.4 363.541 296.197C361.01 298.852 357.818 300.781 354.295 301.787C350.772 302.793 347.045 302.839 343.499 301.921C347.147 302.502 350.884 302.131 354.348 300.844C357.812 299.558 360.886 297.398 363.276 294.575C364.424 294.87 367.868 305.934 373.607 311.893C373.46 312.896 373.313 312.985 373.136 312.985Z" fill="#1A1A1A"/>
<path d="M306.239 526C310.948 498.178 311.801 455.693 311.801 455.191C313.067 455.663 312.184 498.267 306.857 525.439C306.842 525.593 306.771 525.736 306.656 525.84C306.542 525.943 306.393 526 306.239 526Z" fill="#1A1A1A"/>
<path d="M419.99 526C419.431 513.697 415.723 464.78 415.694 464.308C416.959 464.692 420.697 513.667 420.609 525.38C420.609 525.545 420.544 525.702 420.428 525.818C420.312 525.935 420.154 526 419.99 526Z" fill="#1A1A1A"/>
<path d="M369.87 382.76C369.34 382.465 358.097 363.937 358.097 363.937L348.326 377.745C347.178 377.391 347.001 349.805 347.001 349.805L352.093 341.898C353.241 342.105 358.45 361.518 358.45 361.518L376.815 341.456C379.748 343.761 382.476 346.318 384.967 349.097C384.967 349.805 370.458 382.406 370.458 382.406L369.87 382.76ZM358.921 362.875L369.781 380.784L383.761 349.658L377.286 342.783L358.921 362.875ZM348.237 349.982L348.414 375.444L357.449 362.669L352.387 343.757L348.237 349.982Z" fill="#1A1A1A"/>
<path d="M358.921 403.973C361.04 395.171 363.734 386.518 366.985 378.069C368.103 378.659 363.424 390.49 359.539 403.531C359.496 403.66 359.412 403.773 359.301 403.853C359.19 403.932 359.057 403.974 358.921 403.973Z" fill="#1A1A1A"/>
<path d="M346.972 401.259C346.614 392.845 346.978 384.415 348.061 376.063C349.297 376.359 347.826 384.915 347.59 400.64C347.59 400.804 347.525 400.962 347.409 401.078C347.293 401.194 347.136 401.259 346.972 401.259Z" fill="#1A1A1A"/>
<path d="M376.874 404.652C376.874 404.652 363.424 404.18 351.798 404.033C360.148 403.35 368.529 403.133 376.903 403.383C377.345 404.387 377.08 404.652 376.874 404.652Z" fill="#1A1A1A"/>
<path d="M298.204 425.275C300.5 414.624 304.767 408.871 311.389 405.832C311.536 405.832 312.831 405.567 312.831 405.567C324.604 403.531 334.611 413.149 335.023 413.562C334.051 414.359 324.163 404.711 313.038 406.806C305.621 409.756 301.589 415.391 298.822 424.833C298.788 424.968 298.707 425.086 298.594 425.167C298.48 425.248 298.343 425.286 298.204 425.275Z" fill="#1A1A1A"/>
<path d="M310.801 406.835C310.183 406.334 308.534 400.935 316.334 397.394C324.133 393.854 332.786 399.695 333.139 399.931C332.374 400.935 323.81 395.447 316.834 398.545C309.859 401.643 311.331 405.832 311.389 406.009C310.918 406.835 310.86 406.835 310.801 406.835Z" fill="#1A1A1A"/>
<path d="M347.62 402.203C343.77 398.598 339.208 395.843 334.228 394.119C331.904 393.173 329.343 392.98 326.905 393.568C324.466 394.155 322.272 395.493 320.631 397.394C319.689 396.568 325.134 389.546 334.64 392.939C339.735 394.522 344.358 397.35 348.09 401.171C347.914 402.144 347.767 402.203 347.62 402.203Z" fill="#1A1A1A"/>
<path d="M359.421 382.849L352.181 382.2C351.485 378.953 351.022 375.659 350.797 372.346C352.063 372.346 352.829 380.99 352.829 380.99L359.097 381.551L364.572 373.85C365.602 374.588 359.921 382.701 359.921 382.701C359.853 382.759 359.773 382.803 359.686 382.828C359.6 382.853 359.51 382.86 359.421 382.849Z" fill="#1A1A1A"/>
<path d="M360.687 398.28C359.779 392.975 359.141 387.628 358.774 382.259C360.039 382.259 361.334 397.601 361.334 397.601C360.745 398.28 360.716 398.28 360.687 398.28Z" fill="#1A1A1A"/>
<path d="M347.207 392.526C346.648 391.612 351.681 381.315 351.681 381.315C352.829 381.876 347.767 392.172 347.767 392.172C347.717 392.278 347.637 392.368 347.538 392.431C347.439 392.493 347.324 392.526 347.207 392.526Z" fill="#1A1A1A"/>
<path d="M327.665 393.47C327.105 392.349 328.783 383.41 332.079 377.007C329.99 383.823 328.283 392.88 328.283 392.969C328.255 393.112 328.178 393.241 328.065 393.332C327.952 393.424 327.81 393.473 327.665 393.47Z" fill="#1A1A1A"/>
<path d="M382.76 433.064C381.595 433.068 380.447 432.781 379.42 432.23C378.393 431.679 377.518 430.881 376.874 429.907C376.223 428.569 375.919 427.087 375.991 425.6C376.166 423.617 375.986 421.619 375.462 419.699C374.753 417.89 373.759 416.206 372.518 414.713C373.528 415.092 374.435 415.703 375.166 416.497C375.896 417.291 376.431 418.247 376.727 419.286C377.277 421.049 377.487 422.902 377.345 424.744C377.161 426.324 377.405 427.924 378.051 429.376C378.534 430.117 379.187 430.731 379.955 431.167C380.723 431.603 381.584 431.849 382.466 431.884C383.318 431.977 384.18 431.813 384.938 431.412C385.513 430.997 385.997 430.469 386.362 429.86C386.726 429.252 386.963 428.575 387.057 427.871C387.277 426.902 387.406 425.914 387.44 424.921C387.831 420.831 386.791 416.732 384.497 413.326C383.441 411.884 382.076 410.698 380.502 409.856C378.928 409.013 377.185 408.535 375.403 408.458C374.148 408.382 372.899 408.673 371.806 409.296C370.714 409.92 369.826 410.848 369.251 411.969C368.162 411.32 369.869 407.248 375.314 407.189C377.305 407.261 379.254 407.781 381.017 408.711C382.779 409.64 384.311 410.955 385.497 412.559C388.008 416.184 389.136 420.592 388.676 424.98C388.62 426.043 388.472 427.099 388.235 428.137C388.114 429.007 387.813 429.842 387.352 430.589C386.891 431.335 386.279 431.977 385.556 432.474C384.7 432.936 383.73 433.14 382.76 433.064Z" fill="#1A1A1A"/>
<path d="M357.214 329.979C356.461 329.96 355.716 329.82 355.007 329.566C356.802 328.858 357.949 328.828 358.862 328.297C359.828 327.583 360.491 326.529 360.716 325.347C361.923 325.642 361.511 328.297 359.51 329.389C358.814 329.796 358.019 330 357.214 329.979Z" fill="#1A1A1A"/>
<path d="M403.509 431.146C402.38 431.097 401.261 430.898 400.183 430.556C401.949 429.73 403.921 430.261 405.363 429.435C405.939 428.991 406.404 428.418 406.721 427.763C407.037 427.107 407.197 426.387 407.188 425.658C407.541 420.023 403.509 415.008 401.066 412.529C399.807 411.442 398.298 410.684 396.675 410.324C395.052 409.964 393.366 410.012 391.766 410.464C391.766 409.196 397.652 407.366 401.979 411.644C404.539 414.27 408.836 419.61 408.454 425.717C408.454 426.659 408.23 427.586 407.8 428.423C407.37 429.259 406.746 429.981 405.981 430.527C405.225 430.945 404.373 431.158 403.509 431.146Z" fill="#1A1A1A"/>
<path d="M353.505 324.167C351.721 324.321 349.942 323.817 348.502 322.75C348.257 322.491 348.08 322.174 347.988 321.829C347.895 321.484 347.89 321.121 347.972 320.774C348.502 317.646 351.386 308.117 351.503 307.704C352.681 308.176 349.738 317.912 349.208 321.01C350.386 322.957 353.564 322.927 354.623 322.868C354.594 324.137 354.123 324.167 353.505 324.167Z" fill="#1A1A1A"/>
<path d="M343.234 309.12C342.616 308.707 332.992 295.313 342.086 286.963C350.592 279.115 361.511 279.027 369.28 286.757C365.53 283.578 360.725 281.929 355.819 282.136C350.912 282.344 346.262 284.393 342.792 287.878C334.522 295.49 343.499 307.97 343.587 308.117C343.499 309.061 343.352 309.12 343.234 309.12Z" fill="#1A1A1A"/>
</svg>
