<svg width="237" height="293" viewBox="0 0 237 293" fill="none" xmlns="http://www.w3.org/2000/svg">
<path d="M205.33 12.8042C205.33 12.8042 226.267 57.7015 203.945 77.5348C181.622 97.3681 163.168 82.4849 161.688 80.9338C160.207 79.3828 149.523 76.1652 136.547 41.7787C136.547 41.7787 151.864 40.3761 173.072 31.004C194.28 21.6318 205.33 12.8042 205.33 12.8042Z" fill="#163019"/>
<path d="M114.527 125.154L114.845 139.08C114.845 139.08 114.447 155.35 102.761 156.917L102.856 163.517C98.3123 165.632 93.1848 165.978 88.4148 164.491C88.4148 164.491 91.8064 156.95 88.6379 150.103C86.9897 146.354 84.8462 142.861 82.2691 139.724C82.2691 139.724 74.6903 143.882 73.5439 134.262C72.3975 124.643 81.4252 126.623 81.4252 126.623L83.3358 128.421C83.3358 128.421 98.8595 129.939 106.2 110.271C106.215 110.271 112.76 110.766 114.527 125.154Z" fill="white"/>
<path d="M24.7266 276.545V284.646C24.7266 284.646 24.5995 288.97 27.3221 289.745C30.0448 290.521 34.0412 291.577 33.6909 293.524C32.9426 297.022 27.7998 295.9 26.112 295.058C24.4922 294.135 22.9382 293.093 21.4626 291.94C21.4626 291.94 20.4117 300.503 18.6762 303.028C18.3532 303.488 17.9257 303.858 17.4311 304.105C16.9366 304.353 16.3903 304.469 15.8417 304.445C15.2931 304.42 14.759 304.255 14.2868 303.965C13.8146 303.675 13.4189 303.268 13.1354 302.78C12.0482 303.663 10.6717 304.072 9.29832 303.919C8.62342 303.777 7.98759 303.482 7.43674 303.054C6.8859 302.626 6.4339 302.076 6.11392 301.444C5.79522 301.921 5.36901 302.31 4.87235 302.577C4.37569 302.844 3.82351 302.982 3.26383 302.978C1.67163 302.764 0.620914 300.058 0.620914 300.058C0.608635 295.453 0.869171 290.852 1.40108 286.28C2.11757 282.98 2.72234 283.689 2.72234 283.689L6.98971 283.046L9.17082 274.944L24.7266 276.545Z" fill="white"/>
<path d="M114.527 244.914L175.683 267.172C175.683 267.172 176.018 283.062 171.209 292.055L55.1062 291.857C55.1062 291.857 54.5331 265.902 67.0477 250.243C67.0477 250.243 84.9441 251.365 94.1151 250.359C103.286 249.352 111.04 248.098 114.527 244.914Z" fill="#1A1A1A"/>
<path d="M83.3517 128.471C83.3517 128.471 97.0763 127.481 103.541 109.084C103.541 109.084 112.123 109.083 114.559 124.231C114.559 124.231 114.559 116.113 107.091 106.938C106.159 105.688 105.009 104.63 103.7 103.82C98.7961 101.658 93.8126 101.889 83.0971 103.325C73.9101 104.546 66.6656 110.255 65.5829 119.71L71.1871 152.71C71.1871 152.71 71.1871 154.129 66.0762 157.891C60.9652 161.653 57.5262 166.504 62.255 174.078L68.2895 170.696C68.2895 170.696 79.8011 177.114 85.3101 163.584C86.1766 161.495 86.6117 159.242 86.587 156.968C86.5623 154.695 86.0783 152.452 85.1666 150.384C82.1255 142.744 79.2437 140.781 79.2437 140.781C78.5514 140.853 77.8524 140.768 77.1951 140.532C76.5378 140.295 75.9383 139.913 75.4385 139.411C74.2284 138.19 73.4324 136.655 73.4642 132.811C73.4642 128.042 76.2346 126.574 78.2408 126.442C79.1871 126.333 80.1447 126.461 81.0337 126.814C81.9228 127.167 82.7176 127.735 83.3517 128.471Z" fill="#1A1A1A"/>
<path d="M111.868 150.268C111.868 150.268 111.056 155.004 102.761 156.868L102.856 163.468C102.856 163.468 106.598 165.712 107.633 168.517C108.961 168.547 110.272 168.204 111.427 167.525C112.582 166.845 113.537 165.854 114.193 164.656C115.212 162.287 115.536 159.658 115.123 157.099C114.709 154.54 113.577 152.164 111.868 150.268Z" fill="#1A1A1A"/>
<path d="M194.36 115.468C194.678 115.914 192.672 120.963 192.672 120.963L188.548 123.025L190.571 115.782H194.264L194.36 115.468Z" fill="#3A3A3A"/>
<path d="M206.699 135.138C206.699 135.138 190.363 141.573 184.409 138.867L183.055 135.781C183.055 135.781 173.788 153.387 160.764 159.344C147.74 165.3 141.419 168.881 117.25 165.465C116.047 166.779 114.573 167.793 112.937 168.43C111.302 169.068 109.548 169.312 107.808 169.145C107.636 170.988 106.999 172.752 105.961 174.26C105.961 174.26 106.853 196.783 98.9394 197.657C91.0262 198.532 86.2018 176.421 86.2018 176.421C86.2018 176.421 82.0302 173.352 81.7117 171.207C77.3215 172.473 72.6578 172.271 68.3848 170.63C56.9974 176.514 46.8252 184.64 38.4358 194.555C25.5072 210.362 15.9699 231.78 12.9606 244.336C9.95139 256.893 7.35606 274.747 7.35606 274.747L25.3639 276.545C25.3639 276.545 35.0443 249.188 45.4573 231.631C56.2843 213.365 66.1559 208.696 66.1559 208.696C66.1559 208.696 68.5125 239.535 67.1432 249.617C76.5469 250.957 86.0699 251.146 95.516 250.178C110.069 248.528 114.622 244.881 114.622 244.881C114.622 244.881 121.995 231.037 124.494 221.071C126.05 214.84 127.115 208.489 127.679 202.079C127.679 202.079 149.38 200.264 167.993 188.962C186.606 177.659 198.675 160.449 202.512 148.899C206.349 137.349 206.699 135.138 206.699 135.138Z" fill="#37C150"/>
<path d="M151.068 70.5385C145.025 68.5204 139.281 65.644 134 61.9913C132.743 61.0714 131.584 60.0149 130.544 58.8398C129.386 57.5697 128.747 55.8846 128.761 54.1372C128.7 53.598 128.827 53.0539 129.119 52.6031C129.411 52.1523 129.849 51.8245 130.354 51.6787C132.631 50.8273 135.117 50.7809 137.423 51.5467C138.346 51.8107 140.687 52.3057 140.687 52.3057L137.503 44.3691C134.811 43.5821 131.952 43.6569 129.302 44.5836L128.411 44.7321C126.619 45.429 125.062 46.6525 123.931 48.2527C122.799 49.8529 122.143 51.7603 122.042 53.7412C121.962 57.3991 123.252 60.9472 125.641 63.6414C126.908 65.1157 128.341 66.4285 129.908 67.5519C137.455 73.294 147.326 76.6601 153.599 78.5411C155.192 79.0031 158.503 79.7621 160.43 80.1911L151.068 70.5385Z" fill="white"/>
<path d="M213.801 57.9326C214.931 56.2826 216.985 52.9825 217.829 51.58C222.253 43.9845 225.418 35.6742 227.191 26.9946C227.583 25.0641 227.754 23.0925 227.701 21.1205C227.673 17.4729 226.274 13.9803 223.8 11.3853C222.412 10.0074 220.663 9.08344 218.772 8.72841C216.88 8.37338 214.93 8.60304 213.164 9.38876L212.416 9.90027C209.878 11.1123 207.752 13.0908 206.317 15.5764L209.199 23.645C209.199 23.645 210.585 21.6155 211.078 20.7575C212.175 18.713 213.839 17.0573 215.855 16.0054C217.558 15.3289 218.211 15.6094 219.135 16.5004C220.299 17.7678 220.943 19.4533 220.934 21.203C220.949 22.799 220.8 24.3921 220.488 25.9551C219.139 32.2044 216.936 38.2218 213.944 43.8248L213.801 57.9326Z" fill="white"/>
<path d="M204.168 292.055C203.872 288.974 202.909 286.002 201.348 283.361C199.787 280.721 197.67 278.481 195.156 276.809C189.079 272.766 182.537 269.529 175.683 267.172C175.683 267.172 176.225 282.617 170.7 292.055H204.168Z" fill="white"/>
<path d="M212.368 106.459C212.368 106.459 205.155 96.6418 204.231 96.5593C201.071 97.1222 197.941 97.8546 194.854 98.7538C194.347 98.7793 193.841 98.683 193.376 98.4727C192.911 98.2623 192.499 97.9435 192.172 97.5411C191.845 97.1387 191.613 96.6635 191.492 96.1526C191.372 95.6417 191.367 95.109 191.478 94.5958C190.111 93.3758 189.171 91.7229 188.803 89.8932C187.498 89.6127 186.797 87.4017 186.303 86.2301C187.136 85.0268 188.226 84.0387 189.488 83.3426C191.08 82.3691 196.78 80.0425 196.78 80.0425C196.78 80.0425 187.577 80.3725 187.673 75.6039C190.566 74.5734 193.524 73.7465 196.525 73.1289C198.118 73.1289 202.528 75.6369 207.002 82.8146C211.476 89.9922 213.657 92.8302 213.769 98.0278C213.896 100.91 213.418 103.787 212.368 106.459Z" fill="white"/>
<path d="M192.131 100.883C192.131 100.883 194.933 108.027 194.598 111.905L194.264 115.783H191.701L192.131 100.883Z" fill="white"/>
<path d="M136.643 32.1756C137.407 34.0401 151.498 30.0306 168.805 22.4239C186.112 14.8173 199.725 7.57368 198.961 5.77515C198.197 3.97662 183.342 8.08519 166.035 15.6753C148.727 23.2654 135.815 30.3111 136.643 32.1756Z" fill="#1A1A1A"/>
<path d="M205.33 2.34326C205.33 2.34326 206.269 10.0324 168.709 25.8396C131.149 41.6469 129.414 33.9578 129.414 33.9578L131.898 40.2114C131.898 40.2114 135.162 47.3725 173.12 31.0042C208.976 15.5435 208.148 8.49783 208.148 8.49783L205.33 2.34326Z" fill="white"/>
<path d="M231.888 112.647L234.881 119.561C234.881 119.561 227.35 127.25 211.253 133.388C195.156 139.526 189.488 140.665 184.425 138.866L181.543 131.87C181.543 131.87 191.398 136.16 214.326 123.62C232.413 113.835 231.888 112.647 231.888 112.647Z" fill="#1A1A1A"/>
<path d="M199.598 97.2691C199.598 97.2691 208.021 119.511 218.593 118.868C218.593 118.868 206.827 125.237 199.009 127.118C191.191 128.999 188.389 129.758 185.873 128.455C185.873 128.455 195.076 122.168 194.63 112.598C193.948 103.523 190.814 94.8315 185.587 87.5174L187.322 87.0884C187.322 87.0884 192.338 97.5166 194.79 97.8136C196.412 97.9855 198.05 97.8 199.598 97.2691Z" fill="white"/>
<path d="M94.147 141.374C94.147 141.374 95.2136 139.13 96.7102 139.955C98.2069 140.78 97.8886 143.536 99.656 143.635C101.423 143.734 104.432 142.298 105.117 143.635C105.802 144.971 104.401 148.667 98.9555 148.585C98.9555 148.585 99.9901 145.747 98.6686 144.179C97.3443 142.959 95.8106 142.007 94.147 141.374Z" fill="#3A3A3A"/>
<path d="M100.229 149.064C103.238 149.064 105.818 146.787 105.913 144.922C105.948 144.597 105.914 144.268 105.815 143.958C105.717 143.648 105.555 143.363 105.34 143.124C104.875 142.708 104.299 142.447 103.689 142.373C103.079 142.3 102.462 142.417 101.917 142.711C101.394 142.995 100.829 143.184 100.245 143.272C99.4008 143.008 99.2259 142.942 98.4776 141.424C98.2479 140.881 97.8811 140.412 97.416 140.066C96.9509 139.721 96.4048 139.511 95.8347 139.46C95.4774 139.468 95.1268 139.565 94.8135 139.743C94.5002 139.921 94.2332 140.175 94.0353 140.483C93.7564 141.022 93.596 141.618 93.5657 142.229C93.5354 142.839 93.6359 143.449 93.86 144.015C94.1449 145.058 94.6601 146.019 95.3647 146.82C96.0693 147.622 96.9442 148.243 97.9202 148.635C98.6599 148.915 99.441 149.06 100.229 149.064ZM103.413 143.338C103.635 143.323 103.857 143.357 104.065 143.436C104.274 143.516 104.464 143.64 104.623 143.8C104.746 143.942 104.838 144.11 104.893 144.292C104.948 144.474 104.965 144.667 104.942 144.856C104.942 145.962 102.984 148.074 100.165 148.074C99.4865 148.075 98.8128 147.952 98.1752 147.711C97.3402 147.37 96.5922 146.833 95.9902 146.143C95.3881 145.454 94.9479 144.629 94.7039 143.734C94.524 143.313 94.431 142.858 94.431 142.397C94.431 141.937 94.524 141.482 94.7039 141.061C95.4681 139.988 96.8852 140.5 97.538 141.869C98.366 143.52 98.7006 143.833 99.4012 144.097C100.102 144.361 100.484 144.378 102.203 143.602C102.595 143.425 103.018 143.335 103.445 143.338H103.413Z" fill="#1A1A1A"/>
<path d="M79.212 141.242C79.9466 141.231 80.6715 141.067 81.3442 140.761C82.0168 140.455 82.6235 140.013 83.1288 139.46C83.2163 139.368 83.2656 139.243 83.2656 139.114C83.2656 138.984 83.2163 138.86 83.1288 138.767C83.0856 138.72 83.0339 138.683 82.9764 138.657C82.9189 138.632 82.857 138.619 82.7945 138.619C82.7319 138.619 82.67 138.632 82.6125 138.657C82.5551 138.683 82.5033 138.72 82.4602 138.767C82.0697 139.211 81.5989 139.57 81.0744 139.825C80.5498 140.08 79.982 140.225 79.4033 140.252C78.694 140.273 77.9899 140.123 77.3462 139.814C76.7024 139.504 76.1365 139.044 75.6933 138.47C74.6052 137.153 73.9917 135.485 73.9577 133.751C73.8144 130.039 76.0277 126.937 78.8777 126.821C79.8439 126.757 80.8049 127.013 81.6209 127.553C82.4369 128.093 83.0656 128.889 83.4156 129.824C83.4413 129.882 83.4777 129.934 83.5229 129.977C83.5682 130.02 83.6214 130.053 83.6792 130.075C83.737 130.096 83.7982 130.106 83.8596 130.102C83.9209 130.099 83.9811 130.083 84.0364 130.055C84.0937 130.03 84.1456 129.993 84.1888 129.947C84.232 129.901 84.2656 129.846 84.2879 129.786C84.3102 129.726 84.3208 129.662 84.3186 129.597C84.3165 129.533 84.3018 129.47 84.2755 129.412C83.8468 128.3 83.092 127.357 82.1177 126.714C81.1434 126.072 79.9988 125.763 78.8458 125.831C75.4704 125.98 72.8593 129.544 73.0185 133.784C73.0623 135.746 73.7534 137.633 74.9769 139.13C75.4953 139.777 76.1419 140.3 76.8727 140.664C77.6035 141.029 78.4012 141.226 79.212 141.242Z" fill="#1A1A1A"/>
<path d="M78.0974 136.722C78.384 136.722 81.6799 134.23 81.6799 134.23C81.6799 133.471 78.2887 129.874 78.2887 129.874C78.1975 129.787 78.0779 129.739 77.954 129.739C77.8301 129.739 77.7108 129.787 77.6197 129.874C77.5358 129.968 77.4895 130.092 77.4895 130.221C77.4895 130.349 77.5358 130.473 77.6197 130.567L80.677 133.752L77.8269 135.831C77.7275 135.907 77.6603 136.019 77.6395 136.146C77.6187 136.272 77.6459 136.401 77.7153 136.507C77.7561 136.574 77.8125 136.628 77.8794 136.666C77.9462 136.703 78.0214 136.723 78.0974 136.722Z" fill="#1A1A1A"/>
<path d="M111.916 123.57C112.425 123.273 112.457 122.96 112.282 122.762C111.469 121.973 110.456 121.441 109.361 121.231C108.266 121.02 107.136 121.139 106.105 121.573C106.045 121.592 105.991 121.623 105.943 121.664C105.896 121.705 105.857 121.756 105.829 121.813C105.8 121.869 105.783 121.932 105.779 121.995C105.774 122.059 105.782 122.123 105.802 122.184C105.818 122.247 105.847 122.305 105.886 122.356C105.925 122.407 105.973 122.449 106.028 122.48C106.083 122.511 106.144 122.53 106.206 122.536C106.269 122.542 106.331 122.534 106.391 122.514C107.246 122.14 108.187 122.025 109.103 122.182C110.019 122.34 110.873 122.764 111.566 123.405C111.608 123.458 111.662 123.5 111.723 123.529C111.783 123.557 111.849 123.571 111.916 123.57Z" fill="#1A1A1A"/>
<path d="M106.263 141.243C107.409 140.156 108.401 138.906 109.209 137.53C108.891 136.788 105.706 136.194 105.706 136.194C104.626 132.447 104.09 128.554 104.114 124.643C104.114 124.515 104.066 124.391 103.98 124.299C103.893 124.207 103.776 124.153 103.652 124.148C103.59 124.148 103.528 124.161 103.47 124.186C103.412 124.211 103.359 124.247 103.314 124.293C103.27 124.339 103.235 124.394 103.211 124.454C103.187 124.514 103.175 124.578 103.175 124.643C103.097 128.77 103.667 132.883 104.862 136.821C105.87 137.197 106.909 137.474 107.967 137.646C107.376 138.639 106.681 139.563 105.897 140.401C105.809 140.496 105.759 140.624 105.759 140.756C105.759 140.888 105.809 141.015 105.897 141.111C105.946 141.157 106.004 141.193 106.067 141.216C106.13 141.238 106.197 141.247 106.263 141.243Z" fill="#1A1A1A"/>
<path d="M99.7835 157.545C101.722 157.647 103.659 157.339 105.479 156.641C107.299 155.944 108.964 154.87 110.371 153.486C116.358 147.133 115.642 134.791 115.148 126.623C115.037 124.726 114.941 123.092 114.941 121.772C114.941 121.708 114.929 121.644 114.904 121.585C114.88 121.526 114.845 121.473 114.8 121.428C114.756 121.383 114.703 121.348 114.645 121.325C114.587 121.302 114.526 121.292 114.464 121.294C114.34 121.294 114.22 121.344 114.131 121.433C114.042 121.522 113.99 121.644 113.986 121.772C113.986 123.125 114.081 124.775 114.193 126.722C114.654 134.725 115.355 146.82 109.655 152.842C108.224 154.233 106.52 155.287 104.66 155.934C102.799 156.58 100.827 156.803 98.8758 156.588C98.8133 156.583 98.7505 156.592 98.6916 156.614C98.6327 156.637 98.5788 156.671 98.5338 156.716C98.4887 156.762 98.4534 156.816 98.43 156.876C98.4066 156.937 98.3957 157.001 98.3981 157.066C98.3937 157.195 98.4377 157.32 98.5209 157.416C98.6042 157.511 98.7201 157.569 98.844 157.578L99.7835 157.545Z" fill="#1A1A1A"/>
<path d="M83.3515 128.966C99.9264 127.728 105.642 113.291 106.438 110.816C111.47 111.327 114.065 123.422 114.097 123.537C114.124 123.663 114.197 123.774 114.301 123.844C114.405 123.915 114.532 123.941 114.654 123.917C114.776 123.889 114.882 123.813 114.951 123.705C115.019 123.597 115.044 123.466 115.02 123.339C114.909 122.778 112.107 109.809 106.104 109.809C105.595 110.321 100.675 126.705 83.3197 127.959C83.2569 127.964 83.1953 127.981 83.1389 128.009C83.0825 128.038 83.0322 128.078 82.9908 128.127C82.9494 128.176 82.918 128.233 82.8979 128.295C82.8778 128.357 82.8695 128.422 82.8738 128.487C82.8779 128.616 82.9301 128.737 83.0192 128.827C83.1083 128.916 83.2276 128.966 83.3515 128.966Z" fill="#1A1A1A"/>
<path d="M94.7517 165.993C101.232 165.993 103.143 163.996 103.222 163.914C103.366 163.567 103.366 157.082 103.366 157.082C103.362 156.952 103.31 156.829 103.221 156.737C103.132 156.645 103.013 156.592 102.888 156.587C102.825 156.587 102.763 156.6 102.705 156.625C102.647 156.65 102.595 156.686 102.55 156.732C102.506 156.778 102.471 156.833 102.447 156.893C102.423 156.953 102.41 157.017 102.41 157.082V163.336C101.901 163.732 99.8627 164.986 94.7517 164.986C92.691 165.015 90.6389 164.709 88.6698 164.079C88.6092 164.058 88.5451 164.051 88.4816 164.056C88.4182 164.062 88.3565 164.081 88.3001 164.111C88.2437 164.142 88.1936 164.184 88.1532 164.235C88.1127 164.286 88.0827 164.345 88.0645 164.409C88.0451 164.47 88.0379 164.535 88.0436 164.6C88.0492 164.665 88.0674 164.728 88.0972 164.785C88.127 164.842 88.1678 164.892 88.2169 164.932C88.266 164.973 88.3224 165.002 88.3829 165.019C90.4434 165.688 92.5926 166.016 94.7517 165.993Z" fill="#1A1A1A"/>
<path d="M88.6063 177.213C89.1446 177.211 89.6802 177.133 90.1985 176.982C93.5898 176.025 95.9143 172.23 96.7581 170.679C97.9045 172.015 100.962 175.25 103.78 175.316C104.308 175.339 104.834 175.234 105.315 175.007C105.797 174.781 106.22 174.44 106.55 174.012C107.122 173.392 107.549 172.644 107.797 171.826C108.046 171.007 108.11 170.141 107.983 169.293C107.394 165.679 103.206 163.204 103.047 163.105C102.939 163.045 102.813 163.03 102.694 163.064C102.575 163.097 102.474 163.177 102.411 163.287C102.379 163.343 102.359 163.405 102.351 163.47C102.342 163.534 102.346 163.6 102.363 163.663C102.379 163.726 102.407 163.784 102.445 163.836C102.484 163.888 102.531 163.931 102.586 163.963C102.586 163.963 106.534 166.323 107.044 169.458C107.138 170.171 107.07 170.898 106.847 171.579C106.623 172.261 106.249 172.879 105.754 173.385C105.516 173.69 105.215 173.936 104.873 174.104C104.532 174.273 104.158 174.359 103.78 174.359C100.691 174.359 96.9812 169.557 96.9494 169.507C96.1214 169.656 93.6536 174.986 89.8642 176.108C89.0448 176.317 88.1901 176.334 87.3635 176.157C86.537 175.98 85.7595 175.614 85.0876 175.085C83.6741 174.171 82.6624 172.72 82.2693 171.042C82.2425 170.916 82.169 170.806 82.0649 170.735C81.9608 170.664 81.8342 170.638 81.7119 170.662C81.6502 170.674 81.5915 170.699 81.5389 170.734C81.4863 170.77 81.4407 170.816 81.4052 170.869C81.3697 170.923 81.3451 170.983 81.3321 171.047C81.3192 171.11 81.3183 171.176 81.3298 171.24C81.5375 172.195 81.9261 173.098 82.4726 173.897C83.0192 174.696 83.713 175.374 84.5142 175.893C85.7087 176.771 87.1418 177.234 88.6063 177.213Z" fill="#1A1A1A"/>
<path d="M131.643 167.263C159.873 167.263 175.285 150.928 183.485 136.028C183.544 135.913 183.559 135.78 183.527 135.654C183.494 135.528 183.417 135.42 183.31 135.352C183.256 135.319 183.195 135.298 183.133 135.289C183.071 135.281 183.008 135.285 182.947 135.302C182.887 135.319 182.83 135.348 182.78 135.388C182.73 135.427 182.688 135.477 182.657 135.533C173.279 152.594 154.284 171.553 117.011 164.92C116.948 164.908 116.884 164.91 116.821 164.924C116.759 164.939 116.7 164.966 116.648 165.004C116.596 165.043 116.552 165.092 116.519 165.148C116.485 165.204 116.463 165.267 116.454 165.333C116.435 165.462 116.467 165.593 116.541 165.698C116.616 165.803 116.727 165.873 116.852 165.894C121.736 166.784 126.684 167.242 131.643 167.263Z" fill="#1A1A1A"/>
<path d="M188.437 123.835C189.474 121.432 190.259 118.92 190.778 116.344H194.264C194.326 116.344 194.388 116.331 194.445 116.306C194.502 116.281 194.554 116.244 194.597 116.198C194.64 116.151 194.674 116.097 194.696 116.037C194.718 115.977 194.728 115.913 194.726 115.849C194.715 115.721 194.662 115.601 194.574 115.511C194.487 115.42 194.371 115.365 194.248 115.354L190.364 115.436C189.902 115.882 189.472 118.654 187.991 123.257C187.971 123.318 187.964 123.382 187.968 123.446C187.973 123.509 187.99 123.572 188.018 123.629C188.046 123.686 188.085 123.736 188.132 123.777C188.18 123.818 188.235 123.849 188.294 123.868L188.437 123.835Z" fill="#1A1A1A"/>
<path d="M127.551 202.59C147.247 200.28 194.312 189.109 207.161 135.252C207.19 135.126 207.169 134.992 207.104 134.881C207.038 134.77 206.933 134.69 206.811 134.658C206.752 134.639 206.688 134.632 206.626 134.639C206.564 134.646 206.504 134.666 206.45 134.699C206.396 134.732 206.349 134.776 206.312 134.829C206.276 134.881 206.25 134.941 206.238 135.005C193.5 188.268 146.881 199.356 127.44 201.617C127.377 201.623 127.316 201.642 127.26 201.673C127.204 201.703 127.155 201.745 127.115 201.796C127.075 201.846 127.045 201.905 127.027 201.968C127.009 202.03 127.003 202.096 127.01 202.161C127.018 202.226 127.038 202.289 127.07 202.346C127.101 202.403 127.143 202.453 127.194 202.493C127.244 202.533 127.302 202.562 127.363 202.579C127.425 202.596 127.489 202.599 127.551 202.59Z" fill="#1A1A1A"/>
<path d="M114.129 245.409C135.098 209.009 125.959 187.097 125.863 186.882C125.839 186.823 125.804 186.769 125.759 186.725C125.715 186.68 125.662 186.645 125.604 186.622C125.546 186.599 125.484 186.588 125.422 186.59C125.36 186.592 125.299 186.608 125.243 186.635C125.185 186.662 125.132 186.7 125.089 186.748C125.046 186.795 125.012 186.852 124.99 186.913C124.968 186.975 124.957 187.04 124.96 187.105C124.962 187.171 124.977 187.235 125.004 187.295C125.099 187.509 134 208.993 113.715 244.666C113.656 244.781 113.641 244.915 113.673 245.041C113.706 245.166 113.783 245.274 113.89 245.343C113.962 245.388 114.045 245.411 114.129 245.409Z" fill="#1A1A1A"/>
<path d="M108.397 169.656C110.658 169.656 117.87 169.045 118.937 161.406C120.004 153.766 114.002 147.81 113.747 147.579C113.657 147.488 113.537 147.437 113.412 147.437C113.287 147.437 113.167 147.488 113.078 147.579C112.99 147.671 112.941 147.795 112.941 147.925C112.941 148.055 112.99 148.179 113.078 148.272C113.078 148.272 118.985 153.882 117.966 161.224C116.82 169.392 108.142 168.682 107.76 168.649C107.698 168.643 107.635 168.649 107.576 168.668C107.516 168.687 107.461 168.718 107.413 168.76C107.366 168.801 107.327 168.852 107.299 168.91C107.271 168.968 107.254 169.03 107.25 169.095C107.244 169.159 107.25 169.224 107.268 169.286C107.286 169.347 107.316 169.405 107.357 169.454C107.397 169.503 107.446 169.544 107.502 169.573C107.558 169.602 107.618 169.619 107.68 169.623L108.397 169.656Z" fill="#1A1A1A"/>
<path d="M76.2665 172.593C78.2955 172.699 80.3208 172.321 82.1868 171.489C84.0527 170.656 85.7097 169.391 87.0298 167.791C97.1562 154.756 82.9376 139.741 82.7943 139.625C82.7512 139.578 82.6994 139.541 82.6419 139.515C82.5845 139.49 82.5226 139.477 82.46 139.477C82.3975 139.477 82.3356 139.49 82.2781 139.515C82.2206 139.541 82.1688 139.578 82.1257 139.625C82.0804 139.67 82.0442 139.724 82.0196 139.783C81.995 139.843 81.9823 139.907 81.9823 139.972C81.9823 140.036 81.995 140.101 82.0196 140.16C82.0442 140.22 82.0804 140.273 82.1257 140.318C82.2531 140.467 95.8821 154.838 86.2971 167.164C80.2786 174.886 68.6078 170.233 68.4805 170.184C68.4231 170.16 68.3619 170.148 68.3001 170.15C68.2383 170.151 68.1773 170.165 68.1209 170.191C68.0645 170.217 68.0138 170.255 67.9716 170.302C67.9295 170.349 67.8968 170.404 67.8756 170.464C67.8527 170.524 67.8413 170.587 67.8426 170.651C67.8438 170.715 67.8578 170.778 67.883 170.837C67.9082 170.895 67.9443 170.948 67.9895 170.992C68.0347 171.035 68.0881 171.069 68.1462 171.091C70.7524 172.06 73.4977 172.568 76.2665 172.593Z" fill="#1A1A1A"/>
<path d="M62.287 174.49C62.7646 174.259 62.8283 173.946 62.685 173.731C57.1601 165.233 63.1787 160.531 67.5732 157.231C69.85 155.482 71.6491 154.096 71.4421 152.512C68.9105 133.14 66.2354 121.244 65.9965 120.204C66.1023 117.738 66.7908 115.337 68.0012 113.211C69.2115 111.085 70.907 109.299 72.9387 108.011C83.1288 101.08 102.092 102.532 107.585 104.71C107.585 104.71 116.039 109.545 114.161 126.359C114.149 126.423 114.151 126.49 114.166 126.553C114.182 126.617 114.21 126.676 114.249 126.728C114.288 126.779 114.338 126.822 114.394 126.852C114.45 126.882 114.511 126.9 114.575 126.903C114.636 126.913 114.7 126.909 114.76 126.892C114.82 126.875 114.877 126.846 114.926 126.806C114.975 126.765 115.016 126.715 115.046 126.658C115.076 126.602 115.094 126.539 115.1 126.474C117.074 108.935 108.349 104.017 107.967 103.819C102.283 101.625 82.8739 100.156 72.4291 107.252C70.2557 108.623 68.4446 110.531 67.158 112.806C65.8715 115.081 65.1498 117.652 65.0574 120.287C65.0574 120.551 67.8755 132.579 70.5026 152.71C70.63 153.716 68.9105 155.069 67.0158 156.505C62.5735 159.937 55.8704 165.118 61.8889 174.391C61.9435 174.438 62.0076 174.472 62.0767 174.489C62.1457 174.506 62.2177 174.506 62.287 174.49Z" fill="#1A1A1A"/>
<path d="M6.91004 283.508C7.96508 280.745 8.87392 277.925 9.63265 275.06C9.66258 274.933 9.64466 274.799 9.5825 274.686C9.52035 274.572 9.41871 274.488 9.29835 274.449C9.17603 274.418 9.04674 274.437 8.93723 274.501C8.82771 274.566 8.74606 274.671 8.70905 274.796L6.44824 282.881C6.42879 282.943 6.42163 283.008 6.42725 283.072C6.43288 283.137 6.45111 283.2 6.4809 283.257C6.51069 283.314 6.5515 283.364 6.60062 283.405C6.64974 283.445 6.70613 283.475 6.76661 283.491L6.91004 283.508Z" fill="#1A1A1A"/>
<path d="M25.3639 277.073C25.8416 276.693 27.2586 272.288 29.7584 265.803L30.8091 263.114C37.4486 246.366 50.9184 217.061 66.4105 209.009C66.467 208.981 66.5177 208.942 66.559 208.893C66.6003 208.844 66.6313 208.787 66.6507 208.725C66.6701 208.663 66.6774 208.598 66.6717 208.534C66.666 208.469 66.6475 208.406 66.6177 208.349C66.5907 208.291 66.5524 208.238 66.5053 208.195C66.4582 208.153 66.4032 208.12 66.3436 208.1C66.284 208.08 66.221 208.073 66.1586 208.079C66.0962 208.085 66.036 208.104 65.9809 208.135C50.2182 216.385 36.6205 245.871 29.9174 262.751L28.8667 265.44C26.7809 270.869 25.4432 274.845 25.0451 276.05L7.88118 274.301C8.10409 272.288 8.32728 270.357 8.56611 268.559L8.90041 266.249C17.769 205.412 50.0587 180.447 68.5282 171.059C68.6421 171.002 68.7298 170.9 68.7716 170.776C68.8133 170.653 68.8061 170.517 68.7513 170.399C68.6907 170.286 68.591 170.202 68.473 170.162C68.355 170.123 68.227 170.13 68.1142 170.184C49.4855 179.705 16.8931 204.835 7.96087 266.1L7.62657 268.427C7.37182 270.39 7.11713 272.486 6.89422 274.68C7.30819 275.225 25.332 277.056 25.332 277.056L25.3639 277.073Z" fill="#1A1A1A"/>
<path d="M131.229 251.365C131.771 250.771 131.627 250.507 131.388 250.408C119.351 246.151 114.32 244.468 114.272 244.452C113.699 244.683 107.267 252.174 67.0794 249.748C67.0166 249.744 66.9536 249.752 66.894 249.773C66.8344 249.794 66.7792 249.827 66.7319 249.87C66.6845 249.912 66.6458 249.965 66.618 250.023C66.5902 250.082 66.5738 250.145 66.5698 250.21C66.5651 250.341 66.6086 250.468 66.6914 250.566C66.7743 250.664 66.8904 250.726 67.0156 250.738C104.273 252.982 112.823 246.861 114.256 245.475C115.466 245.887 120.625 247.636 131.086 251.349L131.229 251.365Z" fill="#1A1A1A"/>
<path d="M175.683 267.667C176.225 267.106 176.097 266.809 175.858 266.71L171.639 265.06C168.455 263.856 165.27 262.667 162.086 261.479L157.309 259.714C151.068 257.42 148.807 256.595 143.234 254.599C143.174 254.578 143.112 254.57 143.049 254.574C142.986 254.579 142.925 254.596 142.869 254.625C142.813 254.655 142.762 254.695 142.721 254.744C142.68 254.793 142.649 254.851 142.629 254.912C142.588 255.035 142.595 255.169 142.649 255.287C142.702 255.404 142.798 255.495 142.916 255.539C148.504 257.519 150.765 258.344 156.991 260.654L161.767 262.403C164.952 263.591 168.136 264.78 171.241 265.984C172.658 266.512 174.059 267.057 175.445 267.634C175.518 267.674 175.602 267.686 175.683 267.667Z" fill="#1A1A1A"/>
<path d="M204.168 292.549C204.235 292.548 204.301 292.531 204.362 292.501C204.422 292.472 204.476 292.429 204.519 292.376C204.563 292.323 204.595 292.261 204.614 292.194C204.633 292.128 204.638 292.057 204.629 291.988C202.767 277.98 191.016 273.079 180.635 268.756C179.043 268.08 177.45 267.42 175.858 266.727C175.801 266.7 175.739 266.685 175.676 266.684C175.614 266.683 175.551 266.695 175.493 266.72C175.435 266.745 175.383 266.781 175.339 266.828C175.295 266.874 175.26 266.93 175.238 266.991C175.211 267.049 175.197 267.112 175.194 267.176C175.192 267.241 175.202 267.305 175.225 267.365C175.247 267.425 175.281 267.48 175.324 267.526C175.367 267.572 175.419 267.609 175.476 267.634C177.068 268.327 178.661 268.987 180.253 269.68C190.889 274.102 201.875 278.673 203.658 292.12C203.674 292.246 203.736 292.36 203.831 292.44C203.925 292.52 204.046 292.559 204.168 292.549Z" fill="#1A1A1A"/>
<path d="M171.209 292.187C173.731 286.923 175.347 281.245 175.986 275.406C176.322 272.67 176.397 269.907 176.209 267.156C176.205 267.09 176.188 267.026 176.159 266.968C176.13 266.91 176.089 266.859 176.039 266.818C175.99 266.778 175.932 266.749 175.871 266.733C175.81 266.717 175.746 266.715 175.683 266.727C175.559 266.739 175.445 266.802 175.365 266.9C175.285 266.999 175.244 267.126 175.253 267.255C175.444 269.945 175.37 272.649 175.031 275.323C174.411 280.912 172.988 286.374 170.811 291.527C170.763 291.649 170.762 291.787 170.81 291.91C170.857 292.033 170.949 292.132 171.066 292.187H171.209Z" fill="#1A1A1A"/>
<path d="M55.1062 292.335C55.1682 292.337 55.2299 292.327 55.2877 292.304C55.3456 292.28 55.3983 292.246 55.4428 292.201C55.4874 292.156 55.5228 292.103 55.547 292.044C55.5712 291.984 55.584 291.921 55.5839 291.857C55.4472 282.17 57.0675 272.543 60.3605 263.476C60.7586 262.42 61.1566 261.447 61.5706 260.523C63.0557 256.963 65.0056 253.632 67.3661 250.622C68.1241 236.603 67.8793 222.545 66.6337 208.563C66.6325 208.498 66.6176 208.435 66.5902 208.377C66.5628 208.318 66.5236 208.267 66.4751 208.226C66.4266 208.185 66.3701 208.156 66.3095 208.14C66.2489 208.124 66.1855 208.122 66.1241 208.134C66.0619 208.138 66.0013 208.155 65.9457 208.184C65.8901 208.213 65.8408 208.254 65.8007 208.303C65.7605 208.352 65.7303 208.41 65.712 208.471C65.6938 208.533 65.6876 208.598 65.6942 208.662C66.9128 222.435 67.2002 236.28 66.554 250.094C64.1719 253.166 62.2011 256.558 60.6948 260.176C60.2968 261.1 59.8828 262.107 59.4688 263.163C56.1361 272.347 54.4837 282.094 54.5966 291.906C54.6025 291.969 54.6206 292.03 54.6495 292.086C54.6783 292.142 54.7175 292.191 54.7649 292.231C54.8123 292.271 54.8669 292.3 54.9254 292.318C54.984 292.336 55.0455 292.342 55.1062 292.335Z" fill="#1A1A1A"/>
<path d="M98.4299 198.168C99.1692 198.159 99.898 197.986 100.568 197.662C101.238 197.337 101.833 196.869 102.315 196.287C107.091 190.793 106.407 174.837 106.375 174.243C106.367 174.115 106.311 173.995 106.219 173.908C106.127 173.822 106.005 173.777 105.881 173.781C105.818 173.781 105.756 173.794 105.699 173.82C105.641 173.847 105.59 173.885 105.548 173.933C105.506 173.982 105.474 174.039 105.455 174.101C105.435 174.162 105.429 174.228 105.435 174.293C105.435 174.458 106.168 190.446 101.614 195.627C101.247 196.084 100.794 196.458 100.281 196.724C99.7691 196.991 99.2092 197.146 98.6367 197.178C90.6757 197.178 86.5521 176.207 86.5203 175.992C86.4935 175.866 86.4203 175.756 86.3162 175.685C86.2121 175.614 86.0851 175.588 85.9628 175.613C85.9001 175.622 85.8401 175.645 85.7864 175.68C85.7326 175.715 85.6865 175.761 85.6507 175.815C85.6148 175.869 85.59 175.931 85.578 175.995C85.566 176.06 85.5669 176.126 85.5807 176.19C85.6922 177.098 89.9275 198.168 98.4299 198.168Z" fill="#1A1A1A"/>
<path d="M96.6463 170.299C97.6975 168.882 98.3875 167.214 98.6525 165.448C98.6575 165.32 98.6163 165.195 98.5367 165.098C98.4571 165 98.3454 164.937 98.223 164.92C98.1599 164.911 98.0955 164.915 98.0341 164.933C97.9727 164.951 97.9151 164.982 97.8658 165.024C97.8164 165.066 97.7762 165.118 97.7472 165.176C97.7182 165.235 97.7012 165.3 97.6975 165.366C97.4144 166.838 96.9151 168.257 96.2168 169.573C96.1609 169.689 96.1513 169.824 96.19 169.947C96.2287 170.071 96.3125 170.173 96.4236 170.233C96.4922 170.272 96.5682 170.295 96.6463 170.299Z" fill="#1A1A1A"/>
<path d="M90.2144 131.111C91.9658 128.785 93.3031 127.811 94.4654 127.811C96.2805 127.976 97.4426 130.732 97.4426 130.748C97.4669 130.81 97.5029 130.865 97.5483 130.912C97.5938 130.959 97.6479 130.996 97.7073 131.02C97.7667 131.045 97.8303 131.057 97.8943 131.055C97.9583 131.054 98.0213 131.04 98.0797 131.012C98.137 130.987 98.1885 130.951 98.2317 130.904C98.2749 130.858 98.3089 130.803 98.3312 130.743C98.3535 130.683 98.3637 130.619 98.3615 130.555C98.3594 130.49 98.3447 130.427 98.3184 130.369C98.3184 130.237 96.9334 127.069 94.5451 126.838C93.0325 126.689 91.3607 127.844 89.7685 130.286C89.7325 130.34 89.707 130.401 89.6939 130.466C89.6808 130.53 89.6801 130.596 89.6919 130.661C89.7038 130.725 89.7281 130.786 89.763 130.841C89.798 130.896 89.8429 130.943 89.8956 130.979C89.9838 131.06 90.0967 131.107 90.2144 131.111Z" fill="#1A1A1A"/>
<path d="M106.964 130.434C107.697 129.213 108.7 126.903 109.91 126.804C110.722 126.804 111.629 127.679 112.537 129.527C112.595 129.642 112.694 129.729 112.813 129.769C112.932 129.809 113.062 129.799 113.174 129.741C113.23 129.713 113.28 129.674 113.322 129.625C113.363 129.576 113.395 129.519 113.414 129.457C113.433 129.396 113.44 129.33 113.434 129.266C113.429 129.201 113.41 129.138 113.38 129.081C112.25 126.788 111.104 125.781 109.83 125.781C107.792 125.946 106.646 129.362 106.518 129.758C106.499 129.818 106.491 129.883 106.495 129.946C106.5 130.01 106.517 130.072 106.545 130.129C106.573 130.186 106.612 130.237 106.659 130.278C106.707 130.319 106.762 130.35 106.821 130.368L106.964 130.434Z" fill="#1A1A1A"/>
<path d="M15.6354 304.892C16.0523 304.886 16.4679 304.841 16.8774 304.76C20.0618 304.133 21.3674 295.784 21.654 292.847C27.0356 297.252 30.4748 296.675 32.4332 295.355C34.0254 294.299 34.1846 293.292 34.0254 292.632C33.7547 291.362 32.1624 290.421 29.5353 290.009C28.5183 289.933 27.5474 289.54 26.7512 288.88C25.9551 288.219 25.3713 287.324 25.077 286.313L24.918 276.413C24.918 276.149 24.6791 275.984 24.4403 275.934C24.3783 275.934 24.317 275.947 24.2599 275.972C24.2029 275.997 24.151 276.034 24.1079 276.08C24.0649 276.126 24.0311 276.181 24.0088 276.241C23.9866 276.301 23.9764 276.365 23.9785 276.429L24.1379 286.329C24.4485 287.56 25.1212 288.66 26.0628 289.476C27.0045 290.292 28.168 290.784 29.3918 290.883C31.9234 291.279 32.9585 292.104 33.0858 292.748C33.2132 293.391 32.7674 293.853 31.8917 294.398C29.3601 296.048 25.7777 295.058 21.5583 291.395C20.3483 296.097 18.82 303.225 16.5909 303.654C15.7439 303.905 14.8358 303.805 14.0591 303.374C13.7791 303.167 13.5809 302.863 13.5017 302.516C12.7375 302.186 10.6519 303.638 8.94824 303.242C7.80665 302.858 6.85315 302.03 6.289 300.932C5.46106 300.932 4.36269 302.73 2.96155 302.285C2.40104 302.132 1.90156 301.799 1.53534 301.334C1.16911 300.868 0.954975 300.294 0.923489 299.694C0.557285 293.49 1.24199 284.085 2.97749 283.805C5.89121 283.343 14.8233 284.184 18.3739 286.263C18.4283 286.296 18.4882 286.317 18.5504 286.325C18.6126 286.334 18.676 286.33 18.7366 286.313C18.7972 286.296 18.854 286.267 18.9038 286.227C18.9535 286.187 18.9953 286.138 19.0266 286.082C19.0859 285.967 19.1011 285.833 19.0686 285.708C19.036 285.582 18.9584 285.474 18.8517 285.405C15.0622 283.194 5.907 282.336 2.83405 282.831C-0.780243 283.425 -0.031971 299.595 -0.0160484 299.76C0.0236435 300.558 0.305096 301.322 0.788216 301.944C1.27134 302.566 1.9318 303.015 2.67506 303.225C3.26123 303.377 3.87775 303.344 4.4453 303.129C5.01285 302.914 5.50542 302.528 5.85946 302.021C6.54436 303.088 7.57935 303.862 8.77292 304.199C10.1795 304.385 11.6055 304.071 12.8172 303.308C12.9891 303.647 13.2343 303.941 13.5336 304.166C14.1354 304.646 14.876 304.902 15.6354 304.892Z" fill="#1A1A1A"/>
<path d="M185.873 128.999C188.158 127.648 190.129 125.797 191.65 123.573C193.171 121.35 194.205 118.809 194.678 116.129C196.987 102.681 186.144 87.5337 185.683 86.9067C185.646 86.8528 185.6 86.8072 185.546 86.7727C185.492 86.7383 185.432 86.7158 185.369 86.7065C185.306 86.6972 185.242 86.7014 185.181 86.7188C185.12 86.7362 185.063 86.7665 185.014 86.8077C184.916 86.889 184.851 87.0059 184.834 87.1346C184.816 87.2633 184.846 87.3942 184.918 87.5007C185.03 87.6492 195.984 102.945 193.739 115.947C193.299 118.454 192.346 120.834 190.945 122.929C189.545 125.023 187.729 126.783 185.619 128.091C185.565 128.125 185.519 128.169 185.483 128.222C185.446 128.275 185.421 128.335 185.407 128.398C185.394 128.461 185.393 128.526 185.405 128.59C185.416 128.654 185.44 128.714 185.475 128.768C185.518 128.838 185.577 128.895 185.646 128.936C185.716 128.976 185.794 128.998 185.873 128.999Z" fill="#1A1A1A"/>
<path d="M224.086 111.542C225.536 111.538 226.981 111.383 228.401 111.08C228.462 111.068 228.521 111.043 228.573 111.008C228.625 110.972 228.669 110.926 228.703 110.872C228.737 110.818 228.761 110.757 228.772 110.694C228.783 110.63 228.781 110.565 228.768 110.502C228.756 110.439 228.732 110.378 228.698 110.324C228.663 110.271 228.619 110.225 228.567 110.189C228.515 110.154 228.456 110.13 228.395 110.118C228.334 110.107 228.271 110.108 228.21 110.123C225.497 110.792 222.668 110.768 219.967 110.052C217.265 109.337 214.772 107.951 212.702 106.014C212.613 105.923 212.493 105.873 212.368 105.873C212.243 105.873 212.123 105.923 212.033 106.014C211.946 106.107 211.897 106.231 211.897 106.361C211.897 106.49 211.946 106.615 212.033 106.707C215.319 109.836 219.624 111.563 224.086 111.542Z" fill="#1A1A1A"/>
<path d="M188.437 129.857C190.077 129.807 191.709 129.591 193.309 129.213C198.622 127.964 203.822 126.242 208.849 124.065C213.919 121.992 218.808 119.475 223.465 116.541C227.494 113.885 229.277 111.839 228.752 110.486C228.729 110.425 228.694 110.37 228.651 110.323C228.607 110.277 228.554 110.24 228.496 110.215C228.438 110.19 228.375 110.178 228.312 110.179C228.25 110.18 228.188 110.195 228.13 110.222C228.072 110.243 228.019 110.277 227.975 110.321C227.93 110.365 227.894 110.418 227.87 110.477C227.846 110.536 227.834 110.6 227.835 110.664C227.836 110.727 227.85 110.79 227.876 110.849C228.051 111.327 227.223 112.895 222.956 115.7C218.351 118.615 213.509 121.106 208.483 123.141C203.507 125.3 198.361 127.012 193.102 128.256C188.15 129.312 186.51 128.801 186.319 128.256C186.296 128.196 186.262 128.14 186.219 128.093C186.175 128.046 186.123 128.008 186.065 127.982C186.007 127.956 185.945 127.942 185.882 127.941C185.819 127.94 185.757 127.952 185.698 127.976C185.64 127.999 185.586 128.035 185.541 128.08C185.497 128.126 185.461 128.181 185.437 128.241C185.413 128.301 185.402 128.366 185.403 128.431C185.404 128.496 185.418 128.56 185.443 128.619C185.746 129.461 186.749 129.857 188.437 129.857Z" fill="#1A1A1A"/>
<path d="M214.326 124.181C217.827 122.602 221.234 120.811 224.532 118.819C224.587 118.786 224.634 118.743 224.672 118.691C224.711 118.64 224.739 118.581 224.755 118.518C224.772 118.455 224.775 118.39 224.767 118.325C224.759 118.261 224.739 118.198 224.707 118.142C224.641 118.031 224.537 117.951 224.416 117.917C224.294 117.884 224.165 117.899 224.054 117.961C220.842 119.903 217.53 121.666 214.135 123.241C214.078 123.266 214.026 123.302 213.983 123.349C213.94 123.395 213.906 123.45 213.884 123.51C213.861 123.57 213.851 123.634 213.853 123.698C213.855 123.763 213.87 123.826 213.896 123.884C213.933 123.971 213.993 124.045 214.069 124.098C214.146 124.151 214.235 124.18 214.326 124.181Z" fill="#1A1A1A"/>
<path d="M185.061 132.992C186.588 132.966 188.111 132.817 189.615 132.546C189.741 132.522 189.852 132.449 189.927 132.341C190.001 132.233 190.032 132.1 190.013 131.969C190.004 131.904 189.982 131.842 189.948 131.786C189.914 131.73 189.87 131.682 189.818 131.645C189.766 131.608 189.706 131.583 189.644 131.57C189.582 131.558 189.518 131.559 189.456 131.573C184.265 132.464 182.052 131.853 181.718 130.995C181.527 130.5 181.416 128.52 188.167 124.049C188.22 124.015 188.266 123.971 188.303 123.918C188.339 123.865 188.364 123.806 188.378 123.742C188.391 123.679 188.392 123.614 188.38 123.55C188.369 123.486 188.344 123.426 188.31 123.372C188.277 123.317 188.234 123.269 188.184 123.231C188.133 123.194 188.075 123.167 188.014 123.153C187.953 123.139 187.89 123.138 187.828 123.151C187.767 123.163 187.709 123.188 187.657 123.224C182.387 126.705 180.094 129.444 180.842 131.358C181.224 132.497 182.689 132.992 185.061 132.992Z" fill="#1A1A1A"/>
<path d="M187.911 124.181C189.503 123.224 190.984 122.317 192.688 121.409C192.797 121.343 192.878 121.236 192.914 121.11C192.949 120.985 192.937 120.849 192.879 120.733C192.851 120.675 192.811 120.625 192.764 120.584C192.716 120.543 192.661 120.512 192.601 120.493C192.542 120.475 192.479 120.469 192.418 120.476C192.356 120.483 192.296 120.503 192.242 120.535C190.65 121.459 189.058 122.383 187.736 123.274C187.683 123.307 187.637 123.352 187.6 123.404C187.564 123.457 187.538 123.517 187.525 123.58C187.511 123.643 187.51 123.709 187.522 123.772C187.534 123.836 187.558 123.896 187.593 123.95C187.628 124.009 187.675 124.06 187.729 124.099C187.784 124.139 187.846 124.167 187.911 124.181Z" fill="#1A1A1A"/>
<path d="M184.074 138.85C184.488 138.701 184.615 138.421 184.52 138.173L181.75 131.128C181.728 131.067 181.696 131.012 181.654 130.965C181.611 130.919 181.561 130.881 181.504 130.855C181.448 130.829 181.387 130.814 181.325 130.813C181.263 130.812 181.202 130.823 181.144 130.847C181.086 130.871 181.032 130.906 180.987 130.951C180.941 130.997 180.905 131.051 180.88 131.111C180.855 131.17 180.841 131.235 180.84 131.3C180.839 131.365 180.851 131.43 180.874 131.491L183.628 138.536C183.663 138.629 183.725 138.708 183.804 138.764C183.884 138.82 183.978 138.85 184.074 138.85Z" fill="#1A1A1A"/>
<path d="M231.888 113.192C233.655 111.542 234.181 110.205 233.799 109.199C232.557 106.047 223.656 108.06 218.466 109.545C218.346 109.58 218.245 109.661 218.183 109.772C218.121 109.883 218.102 110.015 218.131 110.139C218.168 110.264 218.25 110.369 218.359 110.434C218.469 110.498 218.598 110.517 218.721 110.486C228.385 107.73 232.397 108.275 232.907 109.578C233.146 110.172 232.668 111.228 231.554 112.35C231.509 112.395 231.472 112.449 231.448 112.508C231.423 112.568 231.41 112.632 231.41 112.697C231.41 112.762 231.423 112.826 231.448 112.885C231.472 112.945 231.509 112.999 231.554 113.043C231.596 113.092 231.647 113.13 231.705 113.156C231.763 113.182 231.825 113.194 231.888 113.192Z" fill="#1A1A1A"/>
<path d="M187.911 140.17C193.452 140.17 203.372 137.233 212.463 133.421C218.691 130.881 224.667 127.726 230.312 123.999C235.168 120.699 237.27 118.059 236.585 116.277L233.799 109.149C233.75 109.029 233.657 108.935 233.541 108.885C233.424 108.836 233.294 108.836 233.178 108.885C233.119 108.909 233.066 108.944 233.02 108.99C232.975 109.035 232.938 109.089 232.913 109.149C232.888 109.208 232.875 109.273 232.874 109.338C232.873 109.403 232.884 109.468 232.907 109.529L235.693 116.657C236.06 117.581 234.706 119.792 229.786 123.257C224.192 126.941 218.268 130.057 212.097 132.563C197.019 138.899 185.46 140.648 184.52 138.239C184.497 138.178 184.463 138.123 184.42 138.076C184.376 138.029 184.324 137.991 184.266 137.965C184.208 137.939 184.146 137.925 184.083 137.924C184.02 137.923 183.958 137.935 183.899 137.959C183.783 138.01 183.691 138.105 183.641 138.225C183.59 138.344 183.586 138.479 183.629 138.602C184.074 139.675 185.619 140.17 187.911 140.17Z" fill="#1A1A1A"/>
<path d="M213.8 58.4279C215.272 56.609 216.603 54.6725 217.781 52.6363C222.305 44.774 225.569 36.2038 227.446 27.259C227.856 25.1915 228.038 23.0823 227.987 20.9723C227.958 17.2199 226.519 13.6271 223.975 10.9567C222.521 9.51141 220.689 8.54191 218.706 8.16923C216.724 7.79655 214.68 8.03718 212.829 8.86111C210.059 10.1418 207.716 12.2429 206.094 14.9002C206.059 14.9529 206.033 15.0125 206.021 15.0754C206.008 15.1384 206.007 15.2034 206.019 15.2665C206.031 15.3297 206.055 15.3897 206.09 15.443C206.125 15.4963 206.169 15.5418 206.222 15.5767C206.271 15.6145 206.328 15.6415 206.388 15.6561C206.448 15.6707 206.51 15.6727 206.571 15.6619C206.632 15.6512 206.69 15.6279 206.742 15.5934C206.794 15.5589 206.84 15.514 206.875 15.4612C208.346 12.983 210.505 11.0221 213.068 9.83462C214.758 9.05814 216.633 8.81775 218.455 9.1437C220.277 9.46964 221.965 10.3474 223.306 11.6662C225.663 14.1634 226.994 17.5117 227.016 21.0053C227.064 23.0435 226.887 25.0807 226.49 27.0774C224.627 35.9048 221.401 44.3626 216.937 52.1248C215.966 53.7749 213.976 56.7779 213.386 57.6524C213.317 57.7583 213.29 57.8879 213.311 58.014C213.331 58.1401 213.399 58.253 213.498 58.3289C213.584 58.3979 213.691 58.433 213.8 58.4279ZM213.992 44.4522C217.208 38.7157 219.499 32.4735 220.774 25.9719C221.084 24.4143 221.228 22.8263 221.204 21.2363C221.226 19.3204 220.542 17.468 219.293 16.0553C218.79 15.5504 218.152 15.2144 217.462 15.0908C216.772 14.9671 216.062 15.0617 215.424 15.3622C213.328 16.6135 211.629 18.4715 210.536 20.7083L209.135 23.1009L209.947 23.6124L211.348 21.2198C212.328 19.1693 213.852 17.4517 215.743 16.2698C216.213 16.0305 216.744 15.9465 217.262 16.0291C217.78 16.1117 218.261 16.3569 218.641 16.7318C219.698 17.9732 220.266 19.581 220.233 21.2363C220.262 22.7548 220.123 24.2717 219.819 25.7574C218.57 32.0201 216.463 38.0654 213.562 43.7097C213.532 43.7668 213.513 43.8295 213.508 43.8942C213.502 43.9588 213.509 44.024 213.528 44.0858C213.548 44.1475 213.579 44.2045 213.62 44.2534C213.662 44.3022 213.712 44.3418 213.769 44.3697C213.835 44.4156 213.912 44.4439 213.992 44.4522Z" fill="#1A1A1A"/>
<path d="M160.908 80.9998C161.433 80.3233 161.258 80.0758 161.003 80.0263C159.22 79.6798 155.797 78.9703 154.189 78.5083C145.773 76.1623 137.778 72.4236 130.513 67.4366C128.886 66.2897 127.391 64.9557 126.055 63.46C123.712 60.9405 122.414 57.5703 122.44 54.0714C122.509 52.1804 123.11 50.3517 124.172 48.8118C125.233 47.272 126.707 46.0888 128.411 45.4088C131.315 44.4128 134.425 44.2587 137.407 44.9632C137.469 44.9752 137.532 44.9744 137.594 44.9609C137.655 44.9475 137.713 44.9216 137.765 44.8849C137.817 44.8481 137.861 44.8011 137.895 44.7466C137.929 44.6921 137.953 44.6312 137.964 44.5672C137.976 44.5033 137.975 44.4376 137.962 44.374C137.949 44.3104 137.924 44.25 137.889 44.1964C137.853 44.1428 137.808 44.0969 137.755 44.0615C137.703 44.026 137.644 44.0016 137.582 43.9897C134.475 43.2594 131.234 43.4133 128.204 44.4352C126.298 45.1705 124.644 46.4724 123.448 48.1778C122.253 49.8831 121.57 51.9161 121.485 54.0219C121.458 57.7733 122.84 61.3885 125.338 64.1035C126.722 65.6544 128.271 67.0382 129.956 68.2286C137.314 73.2948 145.418 77.0897 153.95 79.4653C155.542 79.9273 159.029 80.6368 160.828 80.9833L160.908 80.9998ZM151.355 71.0996C151.896 70.5056 151.769 70.2416 151.514 70.1426C145.461 68.1587 139.71 65.2978 134.43 61.645C133.216 60.7939 132.1 59.8031 131.102 58.6915C129.957 57.5315 129.285 55.9606 129.223 54.3024C129.234 53.7657 129.405 53.2456 129.713 52.814C130.021 52.3825 130.45 52.0608 130.943 51.8933C133.1 51.3532 135.362 51.4735 137.455 52.2398C138.378 52.4873 140.639 52.9494 140.639 52.9659C140.7 52.9803 140.763 52.9818 140.824 52.9704C140.886 52.959 140.944 52.9348 140.996 52.8993C141.048 52.8639 141.093 52.8179 141.127 52.7641C141.161 52.7103 141.185 52.6498 141.197 52.5863C141.211 52.5234 141.212 52.4582 141.201 52.3947C141.19 52.3311 141.166 52.2706 141.132 52.2166C141.098 52.1627 141.054 52.1164 141.002 52.0807C140.95 52.045 140.891 52.0206 140.83 52.0089C140.83 52.0089 138.537 51.5304 137.646 51.2828C135.38 50.4693 132.935 50.3547 130.608 50.9528C129.938 51.1914 129.353 51.6341 128.93 52.2229C128.507 52.8117 128.265 53.5192 128.236 54.2529C128.295 56.1685 129.052 57.99 130.354 59.3515C131.404 60.5152 132.579 61.5505 133.856 62.437C139.211 66.1465 145.042 69.0571 151.179 71.0832L151.355 71.0996Z" fill="#1A1A1A"/>
<path d="M210.568 68.3279C212.104 65.6462 213.181 62.7101 213.753 59.6488C214.82 53.6581 214.932 47.5269 214.087 41.4985C213.241 35.3167 211.806 29.237 209.804 23.3482C208.881 20.5761 207.83 17.7546 206.62 14.9826L206.317 14.273C206.063 13.613 205.744 12.8375 205.537 12.4085C205.515 12.3476 205.481 12.2923 205.436 12.2461C205.392 12.1999 205.339 12.164 205.28 12.1406C205.222 12.1173 205.159 12.107 205.096 12.1105C205.033 12.114 204.972 12.1312 204.916 12.161C204.859 12.186 204.807 12.2228 204.764 12.269C204.721 12.3152 204.687 12.3701 204.665 12.4301C204.643 12.4902 204.632 12.5543 204.634 12.6187C204.636 12.683 204.651 12.7462 204.677 12.8045L205.458 14.6525L205.744 15.3786C206.89 18.1176 207.926 20.9062 208.849 23.6287C210.831 29.4697 212.25 35.4997 213.084 41.6305C213.923 47.5374 213.816 53.5472 212.766 59.4178C212.193 62.2524 211.267 64.9979 210.011 67.5854C209.957 67.7036 209.949 67.8395 209.991 67.9632C210.033 68.0869 210.12 68.1884 210.234 68.2454C210.333 68.3136 210.451 68.3428 210.568 68.3279Z" fill="#1A1A1A"/>
<path d="M203.515 78.5414C205.777 76.4426 207.724 74.0069 209.295 71.3143C209.329 71.2596 209.352 71.1982 209.363 71.1339C209.373 71.0696 209.371 71.0038 209.356 70.9405C209.341 70.8771 209.314 70.8176 209.276 70.7655C209.238 70.7135 209.19 70.67 209.136 70.6378C209.03 70.5691 208.902 70.5463 208.78 70.574C208.658 70.6018 208.551 70.678 208.483 70.7863C207.005 73.314 205.223 75.6371 203.181 77.6999C203.136 77.7446 203.099 77.7983 203.075 77.8579C203.05 77.9175 203.037 77.9816 203.037 78.0464C203.037 78.1112 203.05 78.1753 203.075 78.2349C203.099 78.2945 203.136 78.3482 203.181 78.3929C203.224 78.4398 203.276 78.4772 203.333 78.5027C203.391 78.5283 203.453 78.5414 203.515 78.5414Z" fill="#1A1A1A"/>
<path d="M180.651 88.0622C182.525 88.057 184.395 87.8803 186.24 87.5342C186.302 87.5245 186.362 87.5014 186.416 87.4666C186.47 87.4317 186.516 87.3858 186.552 87.3316C186.588 87.2774 186.612 87.2162 186.624 87.1517C186.636 87.0872 186.636 87.0208 186.622 86.9567C186.614 86.8924 186.594 86.8304 186.562 86.7748C186.53 86.7192 186.487 86.6711 186.436 86.6338C186.385 86.5964 186.327 86.5706 186.266 86.558C186.205 86.5454 186.142 86.5463 186.081 86.5606C177.753 88.2107 169.633 86.0986 161.959 80.5381C157.296 77.0295 153.224 72.748 149.906 67.8659C146.409 62.8108 143.411 57.4046 140.958 51.7286C139.795 49.0721 138.681 46.3 137.678 43.4785C137.55 43.132 137.439 42.835 137.343 42.5545C137.248 42.274 137.057 41.7789 136.897 41.3169C136.878 41.2553 136.847 41.1984 136.805 41.1497C136.764 41.101 136.713 41.0616 136.656 41.0338C136.6 41.0061 136.539 40.9905 136.476 40.9881C136.413 40.9857 136.351 40.9966 136.293 41.0199C136.233 41.0402 136.178 41.0728 136.131 41.1157C136.084 41.1587 136.046 41.2111 136.019 41.2697C135.992 41.3284 135.978 41.392 135.975 41.4569C135.973 41.5217 135.983 41.5864 136.006 41.647C136.165 42.109 136.292 42.4885 136.452 42.9175C136.611 43.3465 136.675 43.4785 136.802 43.825C137.805 46.6465 138.919 49.4516 140.098 52.0751C142.581 57.8044 145.605 63.2651 149.126 68.3774C152.516 73.3452 156.668 77.7041 161.417 81.2806C166.986 85.5706 173.713 87.9424 180.651 88.0622Z" fill="#1A1A1A"/>
<path d="M133.984 36.0201C141.642 36.0201 156.577 31.4495 170.301 25.6744C174.155 24.0244 177.896 22.3744 181.447 20.6254C181.561 20.5684 181.648 20.4669 181.69 20.3431C181.732 20.2194 181.725 20.0835 181.67 19.9654C181.644 19.9075 181.608 19.8555 181.563 19.8124C181.517 19.7694 181.464 19.7361 181.406 19.7146C181.349 19.6931 181.287 19.6838 181.226 19.6871C181.164 19.6905 181.104 19.7066 181.049 19.7343C177.53 21.4669 173.804 23.1499 169.903 24.7669C147.82 34.0566 131.022 36.9606 129.78 33.7596C128.538 30.5585 142.518 20.5594 164.618 11.2532C186.717 1.94706 203.499 -0.940507 204.757 2.26055C205.075 3.08556 204.311 4.47159 202.575 6.18762C202.488 6.28015 202.439 6.40454 202.439 6.53411C202.439 6.66368 202.488 6.78812 202.575 6.88065C202.62 6.92805 202.673 6.96571 202.732 6.99143C202.791 7.01716 202.854 7.03041 202.918 7.03041C202.982 7.03041 203.045 7.01716 203.104 6.99143C203.162 6.96571 203.216 6.92805 203.26 6.88065C205.362 4.78512 206.142 3.15159 205.649 1.93057C203.706 -3.01951 182.88 2.57409 164.251 10.3952C145.623 18.2163 126.93 29.2055 128.888 34.1886C129.446 35.4426 131.245 36.0201 133.984 36.0201Z" fill="#1A1A1A"/>
<path d="M136.292 42.0263C139.203 41.9307 142.097 41.5495 144.938 40.8878C154.414 38.6577 163.689 35.5883 172.658 31.7136C191.255 23.8925 209.98 12.9034 208.021 7.92027C208 7.85805 207.967 7.801 207.924 7.75269C207.88 7.70437 207.828 7.66583 207.77 7.63949C207.711 7.61316 207.649 7.59956 207.585 7.59961C207.521 7.59965 207.458 7.61332 207.4 7.63974C207.287 7.69396 207.198 7.79042 207.151 7.90974C207.104 8.02907 207.102 8.16249 207.145 8.28328C208.387 11.4843 194.408 21.4835 172.308 30.8061C163.391 34.6618 154.17 37.7146 144.747 39.9308C134.032 42.2243 132.407 40.4093 132.169 39.7988C132.146 39.738 132.111 39.6825 132.068 39.6355C132.024 39.5884 131.972 39.5508 131.914 39.5247C131.857 39.4987 131.795 39.4846 131.732 39.4835C131.669 39.4824 131.606 39.4943 131.548 39.5183C131.432 39.5693 131.34 39.6654 131.293 39.7859C131.245 39.9063 131.245 40.0413 131.293 40.1618C131.866 41.5313 133.777 42.0263 136.292 42.0263Z" fill="#1A1A1A"/>
<path d="M135.051 33.2148C138.134 33.0572 141.19 32.5312 144.158 31.6473C152.678 29.2758 161.04 26.327 169.187 22.8197C183.214 16.9291 203.531 6.69887 201.987 2.7223C201.7 2.01279 200.872 1.63328 199.423 1.58378C199.36 1.58158 199.298 1.59224 199.239 1.6151C199.18 1.63796 199.126 1.67258 199.081 1.71702C199.035 1.76146 198.998 1.81483 198.972 1.87408C198.946 1.93332 198.932 1.99728 198.93 2.0623C198.933 2.19131 198.982 2.3146 199.067 2.40884C199.152 2.50309 199.267 2.56175 199.391 2.57381C200.808 2.57381 201.063 2.98631 201.095 3.08531C201.843 4.96634 189.949 12.9855 168.821 21.9121C160.719 25.3955 152.406 28.3278 143.935 30.6903C135.815 32.8023 133.251 32.3403 133.012 31.6968C133.012 31.5978 132.726 30.6243 136.595 27.7862C136.695 27.7073 136.763 27.5916 136.784 27.4627C136.805 27.3338 136.777 27.2017 136.706 27.0932C136.63 26.9882 136.517 26.9187 136.392 26.9002C136.267 26.8816 136.139 26.9155 136.038 26.9942C132.853 29.2878 131.675 30.9048 132.137 32.0763C132.264 32.4393 132.583 33.2148 135.051 33.2148Z" fill="#1A1A1A"/>
<path d="M207.575 8.5963C208.005 8.4478 208.117 8.16734 208.021 7.91983L205.665 1.88073C205.616 1.76094 205.522 1.66603 205.406 1.61662C205.29 1.5672 205.16 1.56726 205.044 1.61672C204.928 1.66771 204.837 1.76386 204.789 1.8843C204.741 2.00475 204.741 2.13977 204.789 2.2602L207.145 8.28284C207.18 8.37294 207.238 8.45064 207.315 8.50637C207.391 8.56209 207.482 8.59334 207.575 8.5963Z" fill="#1A1A1A"/>
<path d="M131.738 40.4752C132.152 40.3267 132.264 40.0462 132.168 39.7987L129.812 33.7596C129.763 33.6398 129.67 33.5449 129.554 33.4955C129.438 33.4461 129.307 33.4462 129.191 33.4956C129.076 33.5466 128.984 33.6427 128.936 33.7632C128.888 33.8836 128.888 34.0187 128.936 34.1391L131.293 40.1617C131.328 40.2544 131.389 40.3339 131.469 40.3898C131.549 40.4457 131.642 40.4755 131.738 40.4752Z" fill="#1A1A1A"/>
<path d="M212.383 106.938C216.412 96.2298 212.543 90.4382 209.119 85.1911C208.546 84.3001 207.973 83.4421 207.432 82.551C203.865 76.6274 198.961 72.6509 196.62 72.6509C193.542 73.2408 190.513 74.0794 187.561 75.159C187.29 79.3995 191.748 80.109 194.614 80.373L193.022 81.0165C190.899 81.7389 188.936 82.8883 187.243 84.3991C186.573 84.9506 186.134 85.7484 186.017 86.6266C186.033 87.4173 186.295 88.1814 186.765 88.8047C187.134 89.4472 187.692 89.9503 188.357 90.2402C188.372 91.2018 188.685 92.1331 189.249 92.8967C189.705 93.6909 190.367 94.3368 191.159 94.7612C190.952 95.5699 191.002 96.4266 191.303 97.2033C191.661 97.83 192.171 98.3485 192.783 98.7075C193.395 99.0664 194.087 99.2532 194.79 99.2493C195.887 99.1653 196.963 98.8921 197.974 98.4408C198.436 98.2758 198.898 98.0943 199.328 97.9788C200.702 97.5135 202.154 97.3451 203.595 97.4838C204.868 97.6323 205.903 98.9523 206.779 100.107C208.371 102.021 209.422 103.506 210.393 104.81C211.03 105.569 211.731 106.46 211.874 106.625C212.017 106.79 212.336 106.938 212.383 106.938ZM196.573 73.6244C198.42 73.6244 203.101 77.2215 206.635 83.0791C207.161 83.9701 207.75 84.8446 208.339 85.7521C211.683 90.8177 215.138 96.0648 212.224 105.42L211.508 104.546C210.234 102.896 209.135 101.394 207.989 99.9753C206.604 98.2428 205.393 96.6753 203.738 96.4773C202.175 96.3326 200.6 96.5122 199.104 97.0053C198.643 97.1373 198.165 97.3188 197.672 97.5003C196.757 97.9095 195.783 98.1604 194.79 98.2428C194.255 98.2401 193.73 98.0982 193.263 97.83C192.795 97.5618 192.401 97.1761 192.115 96.7083C191.894 96.0173 191.894 95.2708 192.115 94.5797C191.717 93.9362 190.889 93.7877 189.965 92.3357C189.042 90.8837 189.265 90.0257 189.281 90.0257C188.644 89.3161 188.103 89.2501 187.386 88.2271C187.042 87.749 186.847 87.1732 186.829 86.5771C186.941 85.9595 187.27 85.407 187.752 85.0261C189.352 83.606 191.209 82.5292 193.213 81.8581C194.439 81.363 195.665 80.901 196.907 80.439C197.021 80.395 197.118 80.316 197.186 80.2127C197.254 80.1094 197.291 79.9867 197.289 79.8615C197.289 79.416 196.923 79.3995 196.048 79.383C192.863 79.2675 188.516 78.789 188.087 75.885C190.812 74.8913 193.606 74.1136 196.446 73.5584L196.573 73.6244Z" fill="#1A1A1A"/>
<path d="M191.908 115.964C191.973 115.962 192.036 115.947 192.095 115.919C192.155 115.891 192.208 115.852 192.252 115.803C192.297 115.754 192.331 115.696 192.354 115.633C192.377 115.57 192.388 115.503 192.385 115.436C192.072 110.395 192.141 105.336 192.592 100.306C192.606 100.177 192.57 100.047 192.493 99.9457C192.415 99.8439 192.302 99.7776 192.178 99.761C192.115 99.7518 192.051 99.7563 191.99 99.7741C191.928 99.7919 191.871 99.8227 191.821 99.8645C191.772 99.9064 191.732 99.9584 191.703 100.017C191.674 100.076 191.657 100.141 191.653 100.207C191.191 105.291 191.117 110.406 191.43 115.502C191.438 115.628 191.492 115.745 191.581 115.831C191.67 115.917 191.786 115.965 191.908 115.964Z" fill="#1A1A1A"/>
<path d="M13.1037 303.209C13.5813 302.797 15.9219 289.778 15.9219 289.778C15.9334 289.714 15.9329 289.648 15.9199 289.585C15.907 289.521 15.882 289.461 15.8465 289.407C15.811 289.353 15.7657 289.308 15.7131 289.272C15.6605 289.237 15.6015 289.212 15.5398 289.2C15.4781 289.188 15.415 289.189 15.3536 289.203C15.2922 289.216 15.2339 289.242 15.1821 289.279C15.1304 289.315 15.0861 289.362 15.0519 289.417C15.0177 289.471 14.9942 289.532 14.9827 289.596L12.6422 302.632C12.6308 302.694 12.6314 302.759 12.6446 302.822C12.6577 302.884 12.6832 302.943 12.7188 302.996C12.7545 303.048 12.7997 303.092 12.8522 303.126C12.9046 303.16 12.9633 303.183 13.0244 303.193L13.1037 303.209Z" fill="#1A1A1A"/>
<path d="M5.84346 301.872C5.96482 301.873 6.08166 301.825 6.17038 301.739C6.2591 301.653 6.31273 301.536 6.32082 301.41C6.32082 301.311 6.9739 291.048 7.80186 288.54C7.82193 288.481 7.83029 288.417 7.82673 288.354C7.82318 288.291 7.8075 288.23 7.78086 288.173C7.75423 288.116 7.71726 288.066 7.67163 288.024C7.626 287.982 7.5726 287.95 7.51498 287.93C7.45656 287.906 7.39447 287.895 7.33189 287.898C7.26931 287.9 7.20773 287.916 7.15113 287.944C7.09453 287.971 7.04407 288.011 7.00264 288.059C6.96121 288.108 6.92967 288.165 6.91012 288.227C6.03441 290.85 5.39752 300.915 5.31791 301.344C5.31327 301.475 5.35671 301.602 5.43958 301.7C5.52245 301.798 5.63852 301.86 5.76378 301.872H5.84346Z" fill="#1A1A1A"/>
<path d="M191.924 94.9261C194.181 93.5548 196.579 92.4479 199.073 91.6261C203.849 89.976 205.871 91.5271 205.887 91.5436C205.931 91.5905 205.982 91.6279 206.04 91.6534C206.097 91.6789 206.159 91.6921 206.222 91.6921C206.284 91.6921 206.346 91.6789 206.404 91.6534C206.461 91.6279 206.513 91.5905 206.556 91.5436C206.644 91.451 206.693 91.3267 206.693 91.1971C206.693 91.0675 206.644 90.9431 206.556 90.8505C206.46 90.768 204.168 88.8705 198.818 90.7681C196.31 91.5224 193.915 92.633 191.701 94.0681C191.6 94.1469 191.533 94.2642 191.515 94.3941C191.497 94.5241 191.529 94.6561 191.605 94.7611C191.687 94.8566 191.801 94.9157 191.924 94.9261Z" fill="#1A1A1A"/>
<path d="M188.915 90.29C191.149 88.304 193.734 86.7855 196.525 85.8184C201.222 84.1684 202.559 85.0429 202.575 85.0429C202.624 85.0815 202.68 85.1095 202.74 85.1254C202.799 85.1413 202.861 85.1448 202.922 85.1356C202.983 85.1263 203.041 85.1047 203.094 85.0718C203.147 85.0388 203.192 84.9954 203.228 84.9439C203.3 84.8447 203.332 84.7204 203.317 84.5972C203.303 84.4741 203.242 84.3617 203.149 84.2839C203.005 84.1519 201.461 83.0134 196.207 84.8779C193.35 85.7708 190.733 87.3413 188.564 89.465C188.477 89.5575 188.428 89.6819 188.428 89.8115C188.428 89.941 188.477 90.0655 188.564 90.158C188.661 90.2463 188.786 90.2934 188.915 90.29Z" fill="#1A1A1A"/>
<path d="M200.108 80.5377C200.225 80.538 200.338 80.4922 200.424 80.4095C200.509 80.3267 200.561 80.2133 200.569 80.0922C200.576 80.0281 200.57 79.9631 200.552 79.9014C200.534 79.8397 200.503 79.7825 200.463 79.7332C200.423 79.6839 200.374 79.6434 200.318 79.6144C200.263 79.5854 200.202 79.5683 200.139 79.5642C199.012 79.4526 197.876 79.4526 196.748 79.5642C196.624 79.5807 196.511 79.647 196.434 79.7489C196.356 79.8507 196.321 79.9799 196.334 80.1087C196.35 80.2373 196.414 80.3542 196.512 80.4344C196.611 80.5147 196.735 80.5517 196.86 80.5377C197.919 80.4459 198.985 80.4459 200.044 80.5377H200.108Z" fill="#1A1A1A"/>
<path d="M98.9554 148.915C99.3747 148.318 99.6288 147.614 99.6905 146.878C99.7522 146.143 99.6192 145.404 99.3057 144.74C98.1288 142.881 96.3502 141.518 94.29 140.896C94.1697 140.86 94.0407 140.874 93.9305 140.936C93.8203 140.998 93.738 141.102 93.7011 141.226C93.6817 141.288 93.6745 141.353 93.6801 141.417C93.6858 141.482 93.704 141.545 93.7338 141.602C93.7636 141.659 93.8044 141.709 93.8535 141.75C93.9026 141.79 93.959 141.82 94.0195 141.836C95.8191 142.381 97.386 143.545 98.4618 145.137C98.6749 145.618 98.7852 146.141 98.7852 146.671C98.7852 147.201 98.6749 147.724 98.4618 148.206C98.4198 148.326 98.4245 148.459 98.475 148.576C98.5255 148.693 98.6177 148.785 98.7323 148.833C98.7951 148.886 98.8741 148.915 98.9554 148.915Z" fill="#1A1A1A"/>
</svg>
